<svg xmlns="http://www.w3.org/2000/svg" xmlns:xlink="http://www.w3.org/1999/xlink" style="display:none"><defs><path id="a" d="M.118.599h252.167V94.94H.118z"/></defs><symbol id="shape-close" viewBox="0 0 595.28 841.89"><path class="left" d="M72.4 705.178l509.473-509.474c40.222-40.222-18.77-99.213-58.992-58.992L13.408 646.186c-40.22 40.222 18.77 99.213 58.992 58.992z"/><path class="right" d="M13.407 195.704L522.88 705.178c37.54 37.54 96.533-21.45 58.993-58.992L72.4 136.712c-40.223-40.22-99.214 18.77-58.993 58.992z"/></symbol><symbol id="shape-logo" viewBox="0 0 660 541"><g fill="none" fill-rule="evenodd"><path d="M228.705 45.696c-12.43.047-22.971 10.602-23.013 23.043-.04 12.34 10.624 22.897 23.136 22.902 12.452.006 23.094-10.658 22.978-23.026-.115-12.483-10.682-22.966-23.101-22.919zm22.994-11.591V.918h19.681v107.573h-19.146l-.768-4.68c-11.524 6.783-23.526 8.818-36.198 4.602-8.71-2.897-15.673-8.21-20.955-15.691-10.482-14.847-10.212-34.447.76-48.977 6.63-8.778 15.488-14.13 26.32-15.95 10.586-1.779 20.559.272 30.306 6.31zm76.543 34.413c-.119 12.44 10.105 23.023 22.339 23.122 12.554.101 23.103-10.295 23.139-22.8.037-12.575-10.324-23.082-22.819-23.145-12.214-.061-22.54 10.34-22.659 22.823zm64.746 39.992h-18.962l-.586-4.629c-11.283 6.673-23.076 8.644-35.493 4.784-8.757-2.723-15.785-7.997-21.152-15.432-10.909-15.111-10.582-35.399.771-50.025 12.881-16.593 30.721-19.734 56.081-9.642V.95h19.341v107.56zm49.204-62.815c-12.45-.055-22.85 10.362-22.923 22.959-.071 12.503 10.407 23.033 22.871 22.986 12.114-.045 22.334-10.293 22.466-22.527.137-12.716-10.054-23.364-22.414-23.418zm22.236-12.11l.384-5.457h19.351v80.342h-19.29l-.499-4.705c-9.936 6.126-20.515 8.35-31.753 5.872-11.205-2.471-19.913-8.771-26.123-18.378-9.913-15.338-8.586-35.404 3.118-49.26 13.251-15.688 30.802-18.422 54.812-8.414zM160.349 68.966c.062-12.58-10.228-23.144-22.667-23.271-12.621-.129-23.311 10.468-23.307 23.106.004 12.219 10.458 22.721 22.735 22.84 12.563.122 23.179-10.236 23.239-22.675zm-.216-35.019l.467-5.845h19.093v80.32h-19.075l-.495-4.555c-11.533 6.722-23.543 8.756-36.214 4.578-8.724-2.877-15.679-8.225-20.926-15.724-10.455-14.943-10.019-35.206 1.045-49.359 6.676-8.539 15.369-13.87 26.086-15.602 10.621-1.716 20.589.443 30.019 6.187zm380.994 19.392c-3.075-9.992-14.617-14.159-23.59-8.707-4.54 2.758-4.615 8.223.337 10.262 4.723 1.945 9.945 2.676 14.944 3.955 5.794 1.483 11.805 2.426 17.322 4.611 7.693 3.047 12.925 8.8 13.594 17.454.742 9.609-2.157 17.924-10.57 23.391-9.785 6.36-20.793 6.947-31.981 5.834-7.326-.728-14.143-3.041-19.843-7.919-5.78-4.946-8.859-11.23-9.22-19.171h20.118C516.28 93.465 523.755 97.65 534 94.97c1.918-.501 3.896-1.442 5.408-2.706 4.868-4.066 4.012-9.874-2.029-11.673-5.848-1.743-12.017-2.386-18.014-3.657-3.462-.734-6.949-1.511-10.276-2.689-16.514-5.845-20.834-26.918-7.461-38.351 4.259-3.642 10.045-6.17 15.547-7.54 10.168-2.533 20.406-1.568 29.793 3.63 8.196 4.538 12.627 11.67 13.764 21.355h-19.605m-240.274 55.207h-19.346V28.164h19.346v80.382M281.39 20.31V.854h19.513V20.31H281.39M50.28 496.609h-.27l-13.102-48.675H.139v91.728h21.124v-65.519h.27l17.246 65.519h17.919l16.713-65.519h.27v65.519h26.203v-91.728H62.85l-12.57 48.675m56.803 43.053h68.857v-21.933h-41.315v-14.838h33.427V482.43h-33.427v-13.368h41.315v-21.128h-68.857v91.728m109.288-91.728h-33.83v91.731h35.701c12.701 0 24.066-2.946 33.158-12.44 8.427-8.69 12.706-21.257 12.706-33.294 0-13.102-4.415-25.672-14.041-34.765-9.896-9.49-20.459-11.232-33.694-11.232m14.038 62.976a16.237 16.237 0 0 1-6.015 6.02c-3.477 1.872-5.883 1.605-9.632 1.605h-4.01v-49.742h3.213c6.417 0 10.695-.267 15.109 5.216 3.877 5.082 5.615 13.1 5.615 19.256 0 6.151-1.072 12.301-4.28 17.645m38.673 28.755h28.348v-91.731h-28.348z" fill="#FFFFFE"/><g transform="translate(302 446)"><mask id="b" fill="#fff"><use xlink:href="#a"/></mask><path d="M28.594 1.934L.118 93.665h22.864l5.612-18.053h24.479l5.208 18.053H87.03L58.281 1.934H28.594zm4.688 53.617l7.485-26.605 7.486 26.605H33.282zm127.91-18.181C159.314 14.505 145.942.599 122.554.599c-28.888 0-41.588 21.927-41.588 48.402 0 26.071 14.444 45.997 41.981 45.997 21.131 0 36.507-13.639 38.245-34.763l-25.672-1.608c-.399 7.625-3.743 15.244-12.433 15.244-12.7 0-13.239-15.644-13.239-24.87 0-8.691.539-27.81 12.972-27.81 9.49 0 12.434 9.759 12.174 17.514l26.198-1.335m47.24 36.634c-12.838 0-13.771-16.982-13.771-25.806 0-8.957 1.332-26.874 13.771-26.874 12.434 0 13.772 17.917 13.772 26.874 0 8.824-.939 25.806-13.772 25.806zm0-73.405c-27.943 0-43.858 20.059-43.858 47.466 0 26.071 16.042 46.936 43.858 46.936 27.811 0 43.853-20.865 43.853-46.936 0-27.407-15.909-47.466-43.853-47.466z" fill="#FFFFFE" mask="url(#b)"/></g><path fill="#FFFFFE" d="M621.368 447.934l-12.566 48.675h-.267l-13.106-48.675H558.65v91.731h21.13v-65.522h.267l17.26 65.522h17.908l16.721-65.522h.26v65.522h26.212v-91.731h-37.04M507.76 247.515l3.111 5.618 42.505-28.967 24.307-42.064c1.081-16.286 2.25-34.895 3.301-51.184l-5.56-.009-67.664 116.606m151.511 0l-3.11 5.618-42.505-28.967-24.309-42.064c-1.08-16.286-2.25-34.895-3.299-51.184l5.559-.009 67.664 116.606m-51.434-12.936l-24.538-.042v-.002l-.573.001h-.003l-23.528.043c-14.629 7.239-31.311 15.567-45.927 22.834l2.628 4.814h135.239l2.628-4.814c-14.615-7.267-31.297-15.595-45.926-22.834M267.464 221.52c0 2.814-.008 5.629.002 8.444.02 5.832 1.749 10.87 7.252 13.686 6.01 3.074 12.229 3.123 18.294.105 4.334-2.156 6.882-5.916 7.073-10.667.306-7.654.341-15.34-.001-22.99-.231-5.159-3.152-8.936-7.962-11.094-3.363-1.509-6.901-1.829-10.52-1.553-8.471.647-13.698 6.019-13.987 14.467l-.151 9.602zm-15.506 38.952s-2.429.054-3.526 0V160.366h19.195c0 8.252-.011 16.847-.011 25.258 3.415-2.507 7.024-3.912 10.914-4.507 10.34-1.582 20.178-.406 28.802 6.019 8.184 6.098 11.871 14.61 12.133 24.611.184 7.054.233 14.136-.149 21.178-.793 14.604-9.51 25.093-23.757 28.471-9.865 2.339-19.703 2.195-29.062-2.402-1.674-.936-3.499-1.997-5.189-2.979-.137-.079-.821-.529-.821-.529l-8.529 4.986zm209.593 0c-9.382-10.484-19.822-22.076-29.231-32.537-.694-.772-1.402-1.532-2.434-2.658 0 11.893.024 23.572.024 35.195h-19.263V160.366h19.3c0 17.765-.077 36.336-.077 54.605 2.259-2.566 4.172-4.742 6.088-6.915 7.7-8.731 15.416-17.449 23.083-26.209.803-.917 1.61-1.271 2.826-1.259 6.786.067 13.573.045 20.361.052h1.939l-34.832 39.364 36.475 40.468h-24.259M218.993 212.63c.528-7.866-2.998-13.332-9.927-15.366-4.378-1.285-8.833-1.279-13.227-.071-6.517 1.791-10.564 7.306-9.784 15.437h32.938zm18.882 14.115h-51.912c-.004 4.941.127 9.048 2.676 12.967 1.459 2.243 3.524 3.801 6.04 4.681 5.438 1.901 10.997 2.233 16.615.978 4.519-1.01 7.956-3.268 8.767-8.326h17.507c-.453 6.185-2.383 11.626-6.547 16.139-4.325 4.687-9.843 7.197-16.021 8.245-8.836 1.498-17.666 1.774-26.322-1.101-13.193-4.382-21.341-14.989-21.828-28.875-.256-7.324-.277-14.691.2-21.999.928-14.223 8.996-24.042 22.754-27.644 11.154-2.919 22.241-2.501 32.639 3.025 9.715 5.163 14.665 13.626 15.367 24.453.369 5.704.065 11.452.065 17.457zm-132.611-14.299h32.897c.208-6.111-2.213-12.205-7.89-14.63-3.742-1.599-7.658-1.834-11.674-1.43-8.889.896-13.391 6.926-13.333 16.06zm51.809 14.142h-51.647c-.22 5.58.837 15.687 9.491 18.027 4.894 1.324 9.778 1.721 14.722.816 4.845-.885 8.812-2.976 9.642-8.461h17.599c-.898 9.936-5.32 17.361-14.362 21.707-4.688 2.254-9.718 3.151-14.873 3.494-8.303.552-16.45.027-24.036-3.804-10.871-5.491-16.842-14.359-17.346-26.539-.313-7.545-.231-15.123.053-22.673.468-12.443 8.225-22.727 20.104-26.673 11.419-3.792 22.855-3.632 33.845 1.487 10.323 4.809 15.857 13.314 16.727 24.573.457 5.91.081 11.885.081 18.046zM380.831 231.83c-.112 6.096-3.715 10.887-9.454 12.863a21.074 21.074 0 0 1-6.717 1.162c-2.261-.02-4.505-.4-6.716-1.162-5.739-1.976-9.342-6.767-9.454-12.863a525.539 525.539 0 0 1-.001-20.362c.16-7.923 5.858-13.485 14.105-14.019.69-.045 1.379-.066 2.066-.069.687.003 1.377.024 2.067.069 8.246.534 13.945 6.096 14.105 14.019.137 6.785.125 13.576-.001 20.362zm18.696-24.164c-.825-10.551-6.317-18.779-16.094-23.177-6.223-2.8-12.508-4.247-18.773-4.301-6.264.054-12.549 1.501-18.773 4.301-9.776 4.398-15.268 12.626-16.094 23.177-.712 9.093-.659 18.317-.043 27.422.713 10.514 6.161 18.487 15.662 23.322 6.218 3.164 12.681 4.523 19.248 4.474 6.568.049 13.031-1.31 19.249-4.474 9.501-4.835 14.949-12.808 15.661-23.322.617-9.105.669-18.329-.043-27.422zm-379.034-2.763l-1.105-.016v-27.519c.468-.005.834-.002 1.207 0 8.498.06 16.998.033 25.493.238 3.99.096 7.862 1.005 11.327 3.191 4.984 3.146 6.008 7.879 5.291 13.267-.647 4.866-3.343 8.221-8.106 9.36a52.68 52.68 0 0 1-10.764 1.404c-7.776.21-15.562.075-23.343.075zm63.813 55.569c-12.335-13.768-25.03-27.89-37.106-41.37 3.451-.164 6.667-.047 9.794-.517 9.393-1.412 16.763-5.961 21.041-14.7 2.667-5.447 3.175-11.289 2.551-17.272-1.024-9.801-5.724-17.106-14.615-21.535-7.386-3.679-15.35-4.612-23.46-4.647-13.573-.058-27.146-.046-40.719-.058-.537 0-1.075-.015-1.792 0v100.099h19.291c0-14.637.097-30.213.097-44.728l40.441 44.728h24.477zM254.97 298.882l.864-1.048 147.743 103.682-.864 1.048L254.97 298.882"/><path fill="#FFFFFE" d="M254.97 401.516l147.743-103.682.864 1.048-147.743 103.682-.864-1.048"/></g></symbol></svg>