<svg xmlns="http://www.w3.org/2000/svg" xmlns:xlink="http://www.w3.org/1999/xlink" style="display:none"><defs><path id="a" d="M.118.599h252.167V94.94H.118z"/></defs><symbol id="shape-close" viewBox="0 0 47.971 47.971"><path d="M28.228 23.986L47.092 5.122a2.998 2.998 0 0 0 0-4.242 2.998 2.998 0 0 0-4.242 0L23.986 19.744 5.121.88a2.998 2.998 0 0 0-4.242 0 2.998 2.998 0 0 0 0 4.242l18.865 18.864L.879 42.85a2.998 2.998 0 1 0 4.242 4.241l18.865-18.864L42.85 47.091c.586.586 1.354.879 2.121.879s1.535-.293 2.121-.879a2.998 2.998 0 0 0 0-4.242L28.228 23.986z"/></symbol><symbol id="shape-down-arrow" viewBox="0 0 512 512"><path d="M509.121 125.966a9.821 9.821 0 0 0-13.893 0L256.005 365.194 16.771 125.966a9.821 9.821 0 0 0-13.893 0 9.821 9.821 0 0 0 0 13.893l246.18 246.175a9.819 9.819 0 0 0 6.947 2.878 9.816 9.816 0 0 0 6.946-2.878l246.17-246.175a9.821 9.821 0 0 0 0-13.893z"/></symbol><symbol id="shape-logo" viewBox="0 0 660 541"><g fill="none" fill-rule="evenodd"><path d="M228.705 45.696c-12.43.047-22.971 10.602-23.013 23.043-.04 12.34 10.624 22.897 23.136 22.902 12.452.006 23.094-10.658 22.978-23.026-.115-12.483-10.682-22.966-23.101-22.919zm22.994-11.591V.918h19.681v107.573h-19.146l-.768-4.68c-11.524 6.783-23.526 8.818-36.198 4.602-8.71-2.897-15.673-8.21-20.955-15.691-10.482-14.847-10.212-34.447.76-48.977 6.63-8.778 15.488-14.13 26.32-15.95 10.586-1.779 20.559.272 30.306 6.31zm76.543 34.413c-.119 12.44 10.105 23.023 22.339 23.122 12.554.101 23.103-10.295 23.139-22.8.037-12.575-10.324-23.082-22.819-23.145-12.214-.061-22.54 10.34-22.659 22.823zm64.746 39.992h-18.962l-.586-4.629c-11.283 6.673-23.076 8.644-35.493 4.784-8.757-2.723-15.785-7.997-21.152-15.432-10.909-15.111-10.582-35.399.771-50.025 12.881-16.593 30.721-19.734 56.081-9.642V.95h19.341v107.56zm49.204-62.815c-12.45-.055-22.85 10.362-22.923 22.959-.071 12.503 10.407 23.033 22.871 22.986 12.114-.045 22.334-10.293 22.466-22.527.137-12.716-10.054-23.364-22.414-23.418zm22.236-12.11l.384-5.457h19.351v80.342h-19.29l-.499-4.705c-9.936 6.126-20.515 8.35-31.753 5.872-11.205-2.471-19.913-8.771-26.123-18.378-9.913-15.338-8.586-35.404 3.118-49.26 13.251-15.688 30.802-18.422 54.812-8.414zM160.349 68.966c.062-12.58-10.228-23.144-22.667-23.271-12.621-.129-23.311 10.468-23.307 23.106.004 12.219 10.458 22.721 22.735 22.84 12.563.122 23.179-10.236 23.239-22.675zm-.216-35.019l.467-5.845h19.093v80.32h-19.075l-.495-4.555c-11.533 6.722-23.543 8.756-36.214 4.578-8.724-2.877-15.679-8.225-20.926-15.724-10.455-14.943-10.019-35.206 1.045-49.359 6.676-8.539 15.369-13.87 26.086-15.602 10.621-1.716 20.589.443 30.019 6.187zm380.994 19.392c-3.075-9.992-14.617-14.159-23.59-8.707-4.54 2.758-4.615 8.223.337 10.262 4.723 1.945 9.945 2.676 14.944 3.955 5.794 1.483 11.805 2.426 17.322 4.611 7.693 3.047 12.925 8.8 13.594 17.454.742 9.609-2.157 17.924-10.57 23.391-9.785 6.36-20.793 6.947-31.981 5.834-7.326-.728-14.143-3.041-19.843-7.919-5.78-4.946-8.859-11.23-9.22-19.171h20.118C516.28 93.465 523.755 97.65 534 94.97c1.918-.501 3.896-1.442 5.408-2.706 4.868-4.066 4.012-9.874-2.029-11.673-5.848-1.743-12.017-2.386-18.014-3.657-3.462-.734-6.949-1.511-10.276-2.689-16.514-5.845-20.834-26.918-7.461-38.351 4.259-3.642 10.045-6.17 15.547-7.54 10.168-2.533 20.406-1.568 29.793 3.63 8.196 4.538 12.627 11.67 13.764 21.355h-19.605m-240.274 55.207h-19.346V28.164h19.346v80.382M281.39 20.31V.854h19.513V20.31H281.39M50.28 496.609h-.27l-13.102-48.675H.139v91.728h21.124v-65.519h.27l17.246 65.519h17.919l16.713-65.519h.27v65.519h26.203v-91.728H62.85l-12.57 48.675m56.803 43.053h68.857v-21.933h-41.315v-14.838h33.427V482.43h-33.427v-13.368h41.315v-21.128h-68.857v91.728m109.288-91.728h-33.83v91.731h35.701c12.701 0 24.066-2.946 33.158-12.44 8.427-8.69 12.706-21.257 12.706-33.294 0-13.102-4.415-25.672-14.041-34.765-9.896-9.49-20.459-11.232-33.694-11.232m14.038 62.976a16.237 16.237 0 0 1-6.015 6.02c-3.477 1.872-5.883 1.605-9.632 1.605h-4.01v-49.742h3.213c6.417 0 10.695-.267 15.109 5.216 3.877 5.082 5.615 13.1 5.615 19.256 0 6.151-1.072 12.301-4.28 17.645m38.673 28.755h28.348v-91.731h-28.348z" fill="#FFFFFE"/><g transform="translate(302 446)"><mask id="b" fill="#fff"><use xlink:href="#a"/></mask><path d="M28.594 1.934L.118 93.665h22.864l5.612-18.053h24.479l5.208 18.053H87.03L58.281 1.934H28.594zm4.688 53.617l7.485-26.605 7.486 26.605H33.282zm127.91-18.181C159.314 14.505 145.942.599 122.554.599c-28.888 0-41.588 21.927-41.588 48.402 0 26.071 14.444 45.997 41.981 45.997 21.131 0 36.507-13.639 38.245-34.763l-25.672-1.608c-.399 7.625-3.743 15.244-12.433 15.244-12.7 0-13.239-15.644-13.239-24.87 0-8.691.539-27.81 12.972-27.81 9.49 0 12.434 9.759 12.174 17.514l26.198-1.335m47.24 36.634c-12.838 0-13.771-16.982-13.771-25.806 0-8.957 1.332-26.874 13.771-26.874 12.434 0 13.772 17.917 13.772 26.874 0 8.824-.939 25.806-13.772 25.806zm0-73.405c-27.943 0-43.858 20.059-43.858 47.466 0 26.071 16.042 46.936 43.858 46.936 27.811 0 43.853-20.865 43.853-46.936 0-27.407-15.909-47.466-43.853-47.466z" fill="#FFFFFE" mask="url(#b)"/></g><path fill="#FFFFFE" d="M621.368 447.934l-12.566 48.675h-.267l-13.106-48.675H558.65v91.731h21.13v-65.522h.267l17.26 65.522h17.908l16.721-65.522h.26v65.522h26.212v-91.731h-37.04M507.76 247.515l3.111 5.618 42.505-28.967 24.307-42.064c1.081-16.286 2.25-34.895 3.301-51.184l-5.56-.009-67.664 116.606m151.511 0l-3.11 5.618-42.505-28.967-24.309-42.064c-1.08-16.286-2.25-34.895-3.299-51.184l5.559-.009 67.664 116.606m-51.434-12.936l-24.538-.042v-.002l-.573.001h-.003l-23.528.043c-14.629 7.239-31.311 15.567-45.927 22.834l2.628 4.814h135.239l2.628-4.814c-14.615-7.267-31.297-15.595-45.926-22.834M267.464 221.52c0 2.814-.008 5.629.002 8.444.02 5.832 1.749 10.87 7.252 13.686 6.01 3.074 12.229 3.123 18.294.105 4.334-2.156 6.882-5.916 7.073-10.667.306-7.654.341-15.34-.001-22.99-.231-5.159-3.152-8.936-7.962-11.094-3.363-1.509-6.901-1.829-10.52-1.553-8.471.647-13.698 6.019-13.987 14.467l-.151 9.602zm-15.506 38.952s-2.429.054-3.526 0V160.366h19.195c0 8.252-.011 16.847-.011 25.258 3.415-2.507 7.024-3.912 10.914-4.507 10.34-1.582 20.178-.406 28.802 6.019 8.184 6.098 11.871 14.61 12.133 24.611.184 7.054.233 14.136-.149 21.178-.793 14.604-9.51 25.093-23.757 28.471-9.865 2.339-19.703 2.195-29.062-2.402-1.674-.936-3.499-1.997-5.189-2.979-.137-.079-.821-.529-.821-.529l-8.529 4.986zm209.593 0c-9.382-10.484-19.822-22.076-29.231-32.537-.694-.772-1.402-1.532-2.434-2.658 0 11.893.024 23.572.024 35.195h-19.263V160.366h19.3c0 17.765-.077 36.336-.077 54.605 2.259-2.566 4.172-4.742 6.088-6.915 7.7-8.731 15.416-17.449 23.083-26.209.803-.917 1.61-1.271 2.826-1.259 6.786.067 13.573.045 20.361.052h1.939l-34.832 39.364 36.475 40.468h-24.259M218.993 212.63c.528-7.866-2.998-13.332-9.927-15.366-4.378-1.285-8.833-1.279-13.227-.071-6.517 1.791-10.564 7.306-9.784 15.437h32.938zm18.882 14.115h-51.912c-.004 4.941.127 9.048 2.676 12.967 1.459 2.243 3.524 3.801 6.04 4.681 5.438 1.901 10.997 2.233 16.615.978 4.519-1.01 7.956-3.268 8.767-8.326h17.507c-.453 6.185-2.383 11.626-6.547 16.139-4.325 4.687-9.843 7.197-16.021 8.245-8.836 1.498-17.666 1.774-26.322-1.101-13.193-4.382-21.341-14.989-21.828-28.875-.256-7.324-.277-14.691.2-21.999.928-14.223 8.996-24.042 22.754-27.644 11.154-2.919 22.241-2.501 32.639 3.025 9.715 5.163 14.665 13.626 15.367 24.453.369 5.704.065 11.452.065 17.457zm-132.611-14.299h32.897c.208-6.111-2.213-12.205-7.89-14.63-3.742-1.599-7.658-1.834-11.674-1.43-8.889.896-13.391 6.926-13.333 16.06zm51.809 14.142h-51.647c-.22 5.58.837 15.687 9.491 18.027 4.894 1.324 9.778 1.721 14.722.816 4.845-.885 8.812-2.976 9.642-8.461h17.599c-.898 9.936-5.32 17.361-14.362 21.707-4.688 2.254-9.718 3.151-14.873 3.494-8.303.552-16.45.027-24.036-3.804-10.871-5.491-16.842-14.359-17.346-26.539-.313-7.545-.231-15.123.053-22.673.468-12.443 8.225-22.727 20.104-26.673 11.419-3.792 22.855-3.632 33.845 1.487 10.323 4.809 15.857 13.314 16.727 24.573.457 5.91.081 11.885.081 18.046zM380.831 231.83c-.112 6.096-3.715 10.887-9.454 12.863a21.074 21.074 0 0 1-6.717 1.162c-2.261-.02-4.505-.4-6.716-1.162-5.739-1.976-9.342-6.767-9.454-12.863a525.539 525.539 0 0 1-.001-20.362c.16-7.923 5.858-13.485 14.105-14.019.69-.045 1.379-.066 2.066-.069.687.003 1.377.024 2.067.069 8.246.534 13.945 6.096 14.105 14.019.137 6.785.125 13.576-.001 20.362zm18.696-24.164c-.825-10.551-6.317-18.779-16.094-23.177-6.223-2.8-12.508-4.247-18.773-4.301-6.264.054-12.549 1.501-18.773 4.301-9.776 4.398-15.268 12.626-16.094 23.177-.712 9.093-.659 18.317-.043 27.422.713 10.514 6.161 18.487 15.662 23.322 6.218 3.164 12.681 4.523 19.248 4.474 6.568.049 13.031-1.31 19.249-4.474 9.501-4.835 14.949-12.808 15.661-23.322.617-9.105.669-18.329-.043-27.422zm-379.034-2.763l-1.105-.016v-27.519c.468-.005.834-.002 1.207 0 8.498.06 16.998.033 25.493.238 3.99.096 7.862 1.005 11.327 3.191 4.984 3.146 6.008 7.879 5.291 13.267-.647 4.866-3.343 8.221-8.106 9.36a52.68 52.68 0 0 1-10.764 1.404c-7.776.21-15.562.075-23.343.075zm63.813 55.569c-12.335-13.768-25.03-27.89-37.106-41.37 3.451-.164 6.667-.047 9.794-.517 9.393-1.412 16.763-5.961 21.041-14.7 2.667-5.447 3.175-11.289 2.551-17.272-1.024-9.801-5.724-17.106-14.615-21.535-7.386-3.679-15.35-4.612-23.46-4.647-13.573-.058-27.146-.046-40.719-.058-.537 0-1.075-.015-1.792 0v100.099h19.291c0-14.637.097-30.213.097-44.728l40.441 44.728h24.477zM254.97 298.882l.864-1.048 147.743 103.682-.864 1.048L254.97 298.882"/><path fill="#FFFFFE" d="M254.97 401.516l147.743-103.682.864 1.048-147.743 103.682-.864-1.048"/></g></symbol><symbol id="shape-marker" viewBox="0 0 10 12"><path d="M2.799 2.893a2.67 2.67 0 0 0-.031 3.779 4551.544 4551.544 0 0 0 1.874 1.906l.596-.587 1.309-1.288a2.673 2.673 0 1 0-3.748-3.81zM8.005 1.52a4.673 4.673 0 0 1-.054 6.608L6.64 9.417l-1.31 1.288-.712.7-.7-.712a5807.236 5807.236 0 0 1-2.576-2.619 4.67 4.67 0 0 1 .054-6.607 4.673 4.673 0 0 1 6.608.053z"/></symbol><symbol id="shape-mediacom" viewBox="0 0 167 24"><path d="M12.657 12.624h-.068L9.281.336H0v23.157h5.332V6.953H5.4l4.354 16.54h4.523l4.22-16.54h.067v16.54h6.615V.336H15.83zm14.34 10.869h17.382v-5.537h-10.43V14.21h8.439V9.045h-8.44V5.67h10.43V.337H26.998zM54.586.337h-8.54v23.157h9.013c3.206 0 6.075-.744 8.37-3.14 2.127-2.194 3.207-5.367 3.207-8.405 0-3.308-1.114-6.481-3.544-8.777C60.594.777 57.927.337 54.586.337m3.544 15.898a4.1 4.1 0 0 1-1.52 1.519c-.877.473-1.484.406-2.43.406h-1.013V5.603h.812c1.62 0 2.7-.068 3.814 1.317.979 1.282 1.417 3.307 1.417 4.86 0 1.553-.27 3.106-1.08 4.455m9.763 7.258h7.156V.336h-7.156zM83.42.337l-7.188 23.157h5.77l1.418-4.557h6.18l1.314 4.557h7.258L90.915.337H83.42zm1.183 13.535l1.889-6.716 1.89 6.716h-3.78zm32.29-4.59C116.419 3.51 113.044 0 107.14 0c-7.293 0-10.499 5.535-10.499 12.219 0 6.581 3.647 11.611 10.598 11.611 5.334 0 9.216-3.443 9.655-8.776l-6.481-.406c-.101 1.926-.945 3.848-3.139 3.848-3.206 0-3.342-3.948-3.342-6.277 0-2.194.136-7.021 3.274-7.021 2.397 0 3.139 2.463 3.074 4.421l6.614-.337zm11.925 9.248c-3.241 0-3.477-4.287-3.477-6.514 0-2.26.337-6.784 3.477-6.784 3.139 0 3.477 4.523 3.477 6.784 0 2.227-.237 6.514-3.477 6.514m0-18.53c-7.054 0-11.071 5.063-11.071 11.982 0 6.582 4.05 11.85 11.071 11.85s11.07-5.268 11.07-11.85c0-6.919-4.015-11.982-11.07-11.982m28.005.337l-3.172 12.288h-.067L150.276.337h-9.284v23.157h5.334V6.953h.067l4.358 16.54h4.52l4.221-16.54h.066v16.54h6.617V.338z" fill="#FFF" fill-rule="evenodd"/></symbol><symbol id="shape-power-logo" viewBox="0 0 386 87"><g fill="none" fill-rule="evenodd"><path fill="#FFF" d="M0 1.611h20.15v6.841h-6.642v29.619H6.47V8.452H0zM24.19.694h6.718V13.83c1.322-1.14 2.652-1.995 3.99-2.565 1.339-.57 2.694-.855 4.065-.855 2.677 0 4.932.925 6.767 2.776 1.57 1.603 2.354 3.958 2.354 7.064v17.82h-6.667V26.249c0-3.123-.149-5.238-.446-6.345-.298-1.107-.806-1.933-1.524-2.479-.72-.545-1.607-.818-2.665-.818-1.371 0-2.549.455-3.532 1.364-.983.908-1.665 2.148-2.045 3.717-.198.81-.297 2.66-.297 5.552v10.832H24.19V.694zm56.454 25.852H58.907c.314 1.916 1.153 3.44 2.516 4.573 1.363 1.131 3.102 1.697 5.217 1.697 2.528 0 4.701-.884 6.519-2.652l5.7 2.677c-1.42 2.016-3.122 3.507-5.105 4.474-1.983.967-4.338 1.45-7.064 1.45-4.23 0-7.676-1.334-10.336-4.003s-3.99-6.01-3.99-10.026c0-4.114 1.326-7.53 3.978-10.249 2.652-2.718 5.977-4.077 9.976-4.077 4.247 0 7.7 1.36 10.36 4.077 2.66 2.719 3.991 6.308 3.991 10.77l-.025 1.289zm-6.791-5.33c-.446-1.503-1.326-2.726-2.64-3.668-1.313-.941-2.838-1.412-4.573-1.412-1.883 0-3.536.528-4.957 1.586-.892.66-1.718 1.826-2.478 3.495h14.648zm24.14-19.605h7.361c3.983 0 6.854.368 8.613 1.103 1.76.735 3.148 1.925 4.164 3.57 1.017 1.643 1.525 3.614 1.525 5.91 0 2.545-.665 4.66-1.996 6.346-1.33 1.685-3.135 2.858-5.415 3.52-1.339.38-3.776.57-7.312.57v15.44h-6.94V1.612zm6.94 14.252h2.206c1.735 0 2.941-.124 3.619-.372a3.216 3.216 0 0 0 1.598-1.227c.389-.57.583-1.26.583-2.07 0-1.404-.546-2.428-1.636-3.073-.793-.479-2.264-.719-4.412-.719h-1.958v7.46zm30.386-5.453c2.545 0 4.936.636 7.175 1.909 2.239 1.272 3.987 2.999 5.243 5.18a13.926 13.926 0 0 1 1.883 7.064c0 2.544-.632 4.924-1.896 7.138-1.264 2.214-2.987 3.945-5.168 5.193-2.181 1.247-4.585 1.87-7.212 1.87-3.867 0-7.168-1.375-9.902-4.126-2.735-2.751-4.102-6.093-4.102-10.026 0-4.213 1.545-7.725 4.635-10.534 2.71-2.445 5.824-3.668 9.344-3.668zm.099 6.37c-2.099 0-3.846.731-5.242 2.193-1.396 1.463-2.095 3.334-2.095 5.615 0 2.346.69 4.246 2.07 5.7 1.38 1.454 3.127 2.181 5.242 2.181s3.875-.735 5.28-2.206c1.404-1.47 2.106-3.362 2.106-5.675 0-2.314-.689-4.193-2.069-5.64-1.38-1.445-3.144-2.168-5.292-2.168zm15.73-5.676h6.618l5.428 15.342 5.85-15.342h4.04l5.725 15.169 5.428-15.169h6.668l-9.84 26.967h-4.288l-5.75-15.367-5.924 15.367h-4.239zm69.615 15.442h-21.737c.314 1.916 1.152 3.44 2.516 4.573 1.363 1.131 3.102 1.697 5.217 1.697 2.528 0 4.701-.884 6.519-2.652l5.7 2.677c-1.421 2.016-3.123 3.507-5.105 4.474-1.983.967-4.338 1.45-7.064 1.45-4.231 0-7.676-1.334-10.336-4.003s-3.991-6.01-3.991-10.026c0-4.114 1.326-7.53 3.979-10.249 2.652-2.718 5.977-4.077 9.976-4.077 4.246 0 7.7 1.36 10.36 4.077 2.661 2.719 3.991 6.308 3.991 10.77l-.025 1.289zm-6.791-5.33c-.446-1.503-1.326-2.726-2.64-3.668-1.314-.941-2.838-1.412-4.573-1.412-1.884 0-3.536.528-4.957 1.586-.892.66-1.719 1.826-2.479 3.495h14.649zm10.682-10.112h5.8V14.5c.628-1.339 1.463-2.355 2.504-3.049a6.039 6.039 0 0 1 3.42-1.041c.876 0 1.793.231 2.751.694l-2.107 5.825c-.793-.397-1.445-.595-1.958-.595-1.041 0-1.921.644-2.639 1.933-.719 1.289-1.079 3.817-1.079 7.584l.025 1.314v10.906h-6.717V11.104zm39.589-.694c2.545 0 4.937.636 7.175 1.909 2.239 1.272 3.987 2.999 5.243 5.18a13.926 13.926 0 0 1 1.883 7.064c0 2.544-.632 4.924-1.896 7.138-1.264 2.214-2.986 3.945-5.168 5.193-2.181 1.247-4.585 1.87-7.212 1.87-3.867 0-7.167-1.375-9.902-4.126-2.735-2.751-4.102-6.093-4.102-10.026 0-4.213 1.545-7.725 4.635-10.534 2.71-2.445 5.824-3.668 9.344-3.668zm.099 6.37c-2.098 0-3.846.731-5.242 2.193-1.396 1.463-2.094 3.334-2.094 5.615 0 2.346.689 4.246 2.069 5.7 1.38 1.454 3.127 2.181 5.242 2.181s3.875-.735 5.28-2.206c1.404-1.47 2.107-3.362 2.107-5.675 0-2.314-.69-4.193-2.07-5.64-1.38-1.445-3.144-2.168-5.292-2.168zm16.507-5.676h2.405c.016-3.536.074-5.626.173-6.27.182-1.488.806-2.665 1.872-3.533C286.364.434 287.872 0 289.822 0c1.404 0 2.991.322 4.759.967v5.155c-.975-.28-1.777-.421-2.404-.421-.794 0-1.372.165-1.735.496-.265.247-.397.76-.397 1.536l-.025 3.371h4.288v5.75h-4.288v21.217h-6.766V16.854h-2.405v-5.75z"/><path d="M56.146 49.124h7.361c4.032 0 6.903.359 8.613 1.078 1.71.719 3.086 1.912 4.127 3.581 1.041 1.67 1.562 3.644 1.562 5.924 0 2.396-.575 4.4-1.723 6.01-1.148 1.612-2.88 2.83-5.193 3.657l8.626 16.21h-7.585L63.73 70.141h-.644v15.441h-6.94v-36.46zm6.94 14.251h2.181c2.214 0 3.739-.289 4.573-.867.834-.579 1.252-1.537 1.252-2.875 0-.793-.207-1.483-.62-2.07a3.434 3.434 0 0 0-1.66-1.264c-.695-.256-1.967-.384-3.818-.384h-1.908v7.46zm20.266-4.758h6.84v12.987c0 2.528.174 4.284.521 5.267.347.983.905 1.748 1.673 2.293.769.545 1.715.818 2.838.818 1.124 0 2.078-.269 2.863-.806.785-.537 1.368-1.326 1.748-2.367.28-.776.421-2.437.421-4.982v-13.21h6.791v11.426c0 4.709-.372 7.931-1.115 9.666-.909 2.115-2.247 3.739-4.015 4.87-1.769 1.133-4.016 1.698-6.742 1.698-2.958 0-5.35-.66-7.176-1.983-1.825-1.321-3.11-3.164-3.854-5.527-.529-1.635-.793-4.61-.793-8.922V58.617zm31.304-9.94h6.742v9.94h4.015v5.824h-4.015v21.142h-6.742V64.441h-3.47v-5.825h3.47zm14.426-.47h6.717v13.136c1.322-1.14 2.652-1.995 3.99-2.565 1.339-.57 2.694-.855 4.065-.855 2.677 0 4.932.925 6.767 2.775 1.569 1.603 2.354 3.958 2.354 7.064v17.821h-6.667V73.761c0-3.123-.149-5.238-.446-6.345-.298-1.108-.806-1.934-1.525-2.48-.718-.544-1.607-.817-2.664-.817-1.372 0-2.549.454-3.532 1.363-.983.909-1.665 2.148-2.045 3.718-.198.81-.297 2.66-.297 5.552v10.831h-6.717V48.206zM158.8 85.582h6.766V48.206H158.8zm39.905-11.525h-21.737c.314 1.917 1.152 3.441 2.516 4.573 1.363 1.132 3.102 1.698 5.217 1.698 2.528 0 4.701-.884 6.519-2.652l5.7 2.677c-1.421 2.016-3.123 3.507-5.106 4.473-1.982.967-4.337 1.45-7.064 1.45-4.23 0-7.675-1.334-10.335-4.003-2.66-2.668-3.991-6.01-3.991-10.025 0-4.115 1.326-7.531 3.978-10.25 2.653-2.717 5.978-4.077 9.977-4.077 4.246 0 7.7 1.36 10.36 4.078 2.66 2.718 3.991 6.308 3.991 10.77l-.025 1.288zm-6.791-5.329c-.447-1.504-1.326-2.726-2.64-3.668s-2.838-1.413-4.573-1.413c-1.884 0-3.536.529-4.957 1.586-.893.661-1.719 1.826-2.479 3.495h14.649zm27.776-6.345l-4.189 4.189c-1.702-1.686-3.247-2.528-4.635-2.528-.76 0-1.355.16-1.784.483-.43.322-.645.723-.645 1.202 0 .363.136.698.409 1.004.273.306.946.723 2.02 1.252l2.479 1.239c2.61 1.289 4.403 2.602 5.378 3.94.975 1.34 1.463 2.909 1.463 4.71 0 2.396-.88 4.395-2.64 5.998-1.76 1.603-4.119 2.404-7.076 2.404-3.933 0-7.073-1.536-9.419-4.61l4.164-4.536a9.627 9.627 0 0 0 2.788 2.244c1.066.57 2.012.855 2.838.855.893 0 1.611-.215 2.157-.645.545-.43.818-.925.818-1.487 0-1.04-.984-2.057-2.95-3.048l-2.28-1.14c-4.362-2.198-6.544-4.95-6.544-8.254 0-2.132.822-3.954 2.467-5.466 1.644-1.512 3.746-2.268 6.308-2.268 1.751 0 3.399.385 4.944 1.153s2.855 1.871 3.929 3.309zm21.332 0l-4.189 4.189c-1.702-1.686-3.247-2.528-4.635-2.528-.76 0-1.355.16-1.785.483-.429.322-.644.723-.644 1.202 0 .363.136.698.409 1.004.273.306.946.723 2.02 1.252l2.479 1.239c2.61 1.289 4.403 2.602 5.378 3.94.975 1.34 1.462 2.909 1.462 4.71 0 2.396-.879 4.395-2.639 5.998-1.76 1.603-4.119 2.404-7.077 2.404-3.932 0-7.072-1.536-9.418-4.61l4.164-4.536a9.627 9.627 0 0 0 2.788 2.244c1.066.57 2.012.855 2.838.855.893 0 1.611-.215 2.157-.645.545-.43.818-.925.818-1.487 0-1.04-.984-2.057-2.95-3.048l-2.28-1.14c-4.363-2.198-6.544-4.95-6.544-8.254 0-2.132.822-3.954 2.467-5.466 1.644-1.512 3.746-2.268 6.307-2.268 1.752 0 3.4.385 4.945 1.153 1.545.768 2.855 1.871 3.929 3.309zm13.719-13.26h18.094v6.766h-11.228v6.618h11.228v6.667h-11.228v16.408h-6.866zm35.188 8.798c2.544 0 4.936.637 7.175 1.909s3.986 3 5.242 5.18a13.918 13.918 0 0 1 1.884 7.064c0 2.545-.632 4.924-1.896 7.138-1.264 2.215-2.987 3.946-5.168 5.193-2.181 1.248-4.585 1.871-7.213 1.871-3.866 0-7.167-1.375-9.902-4.126-2.734-2.752-4.102-6.094-4.102-10.026 0-4.214 1.545-7.725 4.635-10.534 2.71-2.446 5.825-3.669 9.345-3.669zm.099 6.37c-2.099 0-3.846.732-5.242 2.194-1.397 1.462-2.095 3.334-2.095 5.614 0 2.346.69 4.247 2.07 5.7 1.379 1.455 3.127 2.182 5.242 2.182s3.875-.735 5.279-2.206c1.405-1.47 2.107-3.363 2.107-5.676s-.69-4.193-2.07-5.639c-1.379-1.446-3.143-2.169-5.291-2.169zm45.126-.223l-5.626 3.099c-1.058-1.107-2.103-1.876-3.136-2.305s-2.243-.645-3.631-.645c-2.528 0-4.573.756-6.134 2.268-1.562 1.512-2.343 3.45-2.343 5.812 0 2.297.752 4.173 2.256 5.627 1.504 1.454 3.478 2.18 5.924 2.18 3.024 0 5.378-1.032 7.064-3.097l5.329 3.643c-2.892 3.75-6.974 5.626-12.245 5.626-4.742 0-8.456-1.404-11.141-4.213-2.685-2.81-4.028-6.097-4.028-9.865 0-2.61.653-5.015 1.959-7.213 1.305-2.197 3.127-3.924 5.465-5.18 2.338-1.256 4.953-1.883 7.845-1.883 2.676 0 5.081.532 7.212 1.598a13.686 13.686 0 0 1 5.23 4.548zm4.022-5.453h6.841v12.988c0 2.528.174 4.284.521 5.267.347.983.905 1.748 1.673 2.293.768.545 1.714.818 2.838.818 1.123 0 2.078-.269 2.863-.806.784-.537 1.367-1.326 1.747-2.367.281-.776.421-2.437.421-4.982v-13.21h6.792v11.426c0 4.709-.372 7.931-1.116 9.666-.909 2.115-2.247 3.739-4.015 4.87-1.768 1.133-4.015 1.698-6.742 1.698-2.958 0-5.349-.66-7.175-1.983-1.826-1.321-3.111-3.164-3.854-5.527-.529-1.635-.794-4.61-.794-8.922V58.617zm45.994 3.768l-4.189 4.189c-1.702-1.686-3.246-2.528-4.634-2.528-.761 0-1.355.16-1.785.483-.43.322-.644.723-.644 1.202 0 .363.136.698.408 1.004.273.306.946.723 2.021 1.252l2.478 1.239c2.611 1.289 4.404 2.602 5.379 3.94.974 1.34 1.462 2.909 1.462 4.71 0 2.396-.88 4.395-2.64 5.998-1.76 1.603-4.118 2.404-7.076 2.404-3.933 0-7.072-1.536-9.419-4.61l4.164-4.536a9.63 9.63 0 0 0 2.789 2.244c1.066.57 2.012.855 2.838.855.892 0 1.611-.215 2.156-.645.545-.43.818-.925.818-1.487 0-1.04-.983-2.057-2.949-3.048l-2.281-1.14c-4.362-2.198-6.543-4.95-6.543-8.254 0-2.132.822-3.954 2.466-5.466 1.644-1.512 3.747-2.268 6.308-2.268 1.751 0 3.4.385 4.945 1.153 1.545.768 2.854 1.871 3.928 3.309z" fill="#ED135C"/></g></symbol><symbol id="shape-submit-arrow" viewBox="0 0 22 19"><path d="M22 9.5c0-.23-.162-.539-.326-.688L12.41.312a1.292 1.292 0 0 0-1.637-.039c-.451.35-.461 1.034-.044 1.414L18.164 8.5H1.158C.519 8.5 0 8.947 0 9.5c0 .552.519 1 1.158 1h17.006l-7.435 6.812c-.417.381-.388 1.047.044 1.415.456.387 1.211.353 1.637-.039l9.264-8.5A.832.832 0 0 0 22 9.5" fill="#FFF" fill-rule="evenodd"/></symbol></svg>