<svg xmlns="http://www.w3.org/2000/svg" style="display:none"><symbol id="shape-close" viewBox="0 0 47.971 47.971"><path d="M28.228 23.986L47.092 5.122a2.998 2.998 0 0 0 0-4.242 2.998 2.998 0 0 0-4.242 0L23.986 19.744 5.121.88a2.998 2.998 0 0 0-4.242 0 2.998 2.998 0 0 0 0 4.242l18.865 18.864L.879 42.85a2.998 2.998 0 1 0 4.242 4.241l18.865-18.864L42.85 47.091c.586.586 1.354.879 2.121.879s1.535-.293 2.121-.879a2.998 2.998 0 0 0 0-4.242L28.228 23.986z"/></symbol><symbol id="shape-down-arrow" viewBox="0 0 512 512"><path d="M509.121 125.966a9.821 9.821 0 0 0-13.893 0L256.005 365.194 16.771 125.966a9.821 9.821 0 0 0-13.893 0 9.821 9.821 0 0 0 0 13.893l246.18 246.175a9.819 9.819 0 0 0 6.947 2.878 9.816 9.816 0 0 0 6.946-2.878l246.17-246.175a9.821 9.821 0 0 0 0-13.893z"/></symbol><symbol id="shape-logo" viewBox="0 0 167 137"><g fill="#FFF" fill-rule="evenodd"><path d="M57.676 11.309c-3.135.012-5.793 2.674-5.804 5.811-.01 3.112 2.68 5.774 5.835 5.776 3.14.001 5.824-2.688 5.795-5.807-.029-3.148-2.694-5.792-5.826-5.78m5.8-2.923V.017h4.962v27.128H63.61l-.194-1.18c-2.906 1.71-5.933 2.224-9.129 1.16-2.196-.73-3.952-2.07-5.284-3.957-2.644-3.744-2.576-8.687.191-12.351 1.672-2.214 3.906-3.563 6.638-4.023 2.67-.448 5.185.069 7.643 1.592m19.303 8.678c-.03 3.137 2.548 5.806 5.634 5.831 3.166.025 5.826-2.596 5.835-5.75.01-3.171-2.604-5.821-5.755-5.837-3.08-.015-5.684 2.608-5.714 5.756zm16.328 10.085h-4.782c-.049-.391-.09-.724-.148-1.167-2.845 1.683-5.819 2.18-8.95 1.207-2.209-.687-3.98-2.017-5.335-3.892-2.75-3.811-2.668-8.927.195-12.616 3.248-4.185 7.747-4.977 14.143-2.432V.024h4.877v27.125zm12.409-15.841c-3.14-.014-5.762 2.613-5.781 5.79-.018 3.153 2.625 5.809 5.768 5.797 3.055-.012 5.632-2.596 5.666-5.681.034-3.207-2.536-5.892-5.653-5.906m5.608-3.054l.096-1.376h4.881v20.261h-4.865l-.126-1.186c-2.506 1.544-5.174 2.105-8.008 1.48-2.825-.623-5.021-2.212-6.588-4.635a10.475 10.475 0 0 1 .787-12.422c3.341-3.956 7.768-4.646 13.823-2.122m-76.685 8.923c.016-3.172-2.58-5.837-5.716-5.869-3.183-.032-5.88 2.64-5.878 5.827 0 3.082 2.637 5.73 5.733 5.761 3.169.03 5.846-2.582 5.86-5.719m-.053-8.831l.117-1.474h4.815v20.255h-4.81l-.125-1.148c-2.908 1.695-5.937 2.208-9.133 1.154-2.2-.725-3.954-2.074-5.277-3.965-2.637-3.769-2.527-8.879.264-12.448 1.683-2.153 3.875-3.498 6.578-3.934 2.679-.433 5.192.111 7.57 1.56m96.082 4.89c-.775-2.52-3.686-3.571-5.949-2.196-1.145.696-1.164 2.074.085 2.588 1.191.491 2.508.675 3.769.998 1.461.374 2.977.611 4.368 1.162 1.94.769 3.259 2.22 3.428 4.402.187 2.423-.544 4.52-2.665 5.899-2.468 1.604-5.244 1.752-8.066 1.471-1.847-.183-3.566-.767-5.004-1.997-1.457-1.247-2.234-2.832-2.325-4.835h5.074c1.019 2.627 2.904 3.683 5.488 3.007a3.615 3.615 0 0 0 1.364-.682c1.227-1.026 1.011-2.491-.512-2.944-1.475-.44-3.031-.602-4.543-.923-.873-.185-1.753-.381-2.592-.678-4.164-1.474-5.254-6.788-1.881-9.671 1.074-.919 2.533-1.556 3.921-1.902 2.564-.639 5.146-.395 7.513.916 2.067 1.144 3.184 2.943 3.471 5.385h-4.944zM70.993 27.159h4.879V6.888h-4.88zm-.03-22.253h4.92V0h-4.92zM12.68 125.023h-.068l-3.304-12.275H.035v23.132h5.327v-16.523h.068l4.35 16.523h4.519l4.214-16.523h.068v16.523h6.609v-23.132h-9.34zm14.325 10.858H44.37v-5.531H33.95v-3.742h8.43v-5.16h-8.43v-3.371h10.42v-5.33H27.005zm27.56-23.133h-8.53v23.133h9.003c3.203 0 6.069-.742 8.362-3.137 2.125-2.191 3.204-5.361 3.204-8.396 0-3.304-1.113-6.474-3.541-8.767-2.495-2.394-5.16-2.833-8.497-2.833m3.54 15.882a4.092 4.092 0 0 1-1.517 1.518c-.877.472-1.483.405-2.43.405h-1.01v-12.545h.81c1.619 0 2.697-.067 3.81 1.316.978 1.28 1.417 3.304 1.417 4.856 0 1.55-.271 3.102-1.08 4.45m9.753 7.251h7.149v-23.133h-7.15zm15.513-23.133L76.19 135.88h5.767l1.415-4.552h6.173l1.314 4.552h7.25l-7.25-23.133h-7.487zm1.181 13.522l1.889-6.71 1.888 6.71h-3.776zm32.258-4.586c-.474-5.766-3.846-9.273-9.744-9.273-7.285 0-10.488 5.53-10.488 12.206 0 6.575 3.643 11.6 10.587 11.6 5.329 0 9.207-3.439 9.645-8.767l-6.474-.405c-.101 1.923-.944 3.844-3.136 3.844-3.202 0-3.338-3.945-3.338-6.272 0-2.192.136-7.013 3.271-7.013 2.393 0 3.136 2.461 3.07 4.417l6.607-.337zm11.913 9.239c-3.238 0-3.473-4.283-3.473-6.508 0-2.259.336-6.777 3.473-6.777 3.136 0 3.473 4.518 3.473 6.777 0 2.225-.237 6.508-3.473 6.508m0-18.512c-7.047 0-11.06 5.059-11.06 11.97 0 6.575 4.045 11.837 11.06 11.837 7.014 0 11.059-5.262 11.059-11.837 0-6.911-4.012-11.97-11.059-11.97m27.977.337l-3.169 12.275h-.067l-3.305-12.275h-9.276v23.133h5.329v-16.523h.067l4.353 16.523h4.516l4.217-16.523h.066v16.523h6.61v-23.133zm-28.65-50.543l.785 1.417 10.719-7.305 6.13-10.608c.272-4.107.567-8.8.832-12.908l-1.402-.002-17.064 29.406zm38.209 0l-.784 1.417-10.719-7.305-6.131-10.608c-.272-4.107-.567-8.8-.832-12.908l1.402-.002 17.064 29.406zm-12.971-3.262l-6.188-.011h-.145l-5.934.01c-3.689 1.827-7.896 3.927-11.582 5.759l.663 1.214h34.105l.663-1.214c-3.686-1.832-7.893-3.932-11.582-5.758m-85.838-3.294c0 .71-.002 1.42 0 2.13.006 1.47.442 2.741 1.829 3.451 1.516.775 3.084.787 4.614.026 1.093-.543 1.735-1.492 1.784-2.69.077-1.93.086-3.868-.001-5.797-.058-1.302-.795-2.254-2.008-2.798-.848-.38-1.74-.462-2.653-.392-2.136.163-3.454 1.518-3.527 3.648l-.038 2.422zm-3.91 9.823s-.613.014-.89 0V40.227h4.84l-.002 6.37a6.103 6.103 0 0 1 2.753-1.137c2.607-.399 5.088-.103 7.263 1.518 2.064 1.538 2.994 3.684 3.06 6.206.046 1.78.059 3.565-.038 5.341-.2 3.683-2.398 6.328-5.991 7.18-2.488.59-4.97.554-7.33-.606a90.111 90.111 0 0 1-1.307-.75 9.982 9.982 0 0 1-.208-.134l-2.15 1.257zm52.856 0c-2.366-2.644-4.999-5.567-7.372-8.205-.175-.195-.353-.387-.613-.67 0 3 .006 5.944.006 8.875h-4.858V40.227h4.867c0 4.48-.02 9.163-.02 13.77l1.536-1.744c1.942-2.2 3.887-4.4 5.821-6.609a.841.841 0 0 1 .713-.318c1.711.017 3.423.012 5.134.013h.489l-8.784 9.928 9.199 10.205h-6.118zm-61.17-12.065c.133-1.984-.756-3.362-2.503-3.875a6.016 6.016 0 0 0-3.336-.018c-1.644.452-2.664 1.842-2.468 3.893h8.307zm4.762 3.56H46.897c0 1.246.032 2.281.675 3.27.368.565.89.958 1.523 1.18a7.516 7.516 0 0 0 4.19.247c1.14-.255 2.007-.824 2.211-2.1h4.415c-.114 1.56-.6 2.932-1.65 4.07-1.09 1.182-2.483 1.815-4.04 2.08-2.229.377-4.456.447-6.639-.278-3.327-1.105-5.382-3.78-5.505-7.282-.064-1.847-.07-3.705.051-5.548.234-3.587 2.268-6.063 5.738-6.97 2.813-.738 5.61-.632 8.231.761 2.45 1.302 3.698 3.437 3.875 6.167.093 1.44.017 2.888.017 4.403zm-33.443-3.606h8.296c.053-1.541-.558-3.078-1.99-3.69-.943-.403-1.93-.462-2.944-.36-2.24.226-3.377 1.747-3.362 4.05m13.066 3.566H26.587c-.056 1.408.211 3.956 2.393 4.547 1.235.333 2.466.434 3.713.205 1.222-.223 2.222-.75 2.432-2.133h4.438c-.227 2.505-1.342 4.378-3.622 5.474-1.182.568-2.45.794-3.75.88-2.095.14-4.149.008-6.062-.958-2.742-1.385-4.248-3.622-4.375-6.693a72.687 72.687 0 0 1 .013-5.718c.12-3.138 2.075-5.731 5.071-6.727 2.88-.956 5.763-.916 8.535.375 2.603 1.213 4 3.358 4.218 6.197.115 1.49.021 2.998.021 4.55m56.429 1.323c-.028 1.537-.937 2.746-2.384 3.244a5.322 5.322 0 0 1-1.694.293 5.322 5.322 0 0 1-1.694-.293c-1.447-.498-2.356-1.707-2.384-3.244a131.198 131.198 0 0 1 0-5.135c.04-1.998 1.477-3.4 3.557-3.535.174-.012.348-.017.52-.018.174.001.348.006.522.018 2.08.134 3.517 1.537 3.557 3.535.035 1.711.032 3.424 0 5.135m4.715-6.094c-.208-2.66-1.593-4.736-4.06-5.845-1.568-.706-3.153-1.07-4.733-1.084-1.58.013-3.165.378-4.734 1.084-2.466 1.11-3.851 3.184-4.06 5.845-.18 2.293-.165 4.62-.01 6.916.18 2.651 1.554 4.662 3.95 5.881a10.371 10.371 0 0 0 4.854 1.128c1.656.013 3.286-.33 4.854-1.128 2.396-1.219 3.77-3.23 3.95-5.88a47.798 47.798 0 0 0-.011-6.917M5.168 51.46l-.279-.004v-6.94h.305c2.143.015 4.286.008 6.429.06 1.006.024 1.982.253 2.856.805 1.257.793 1.515 1.987 1.335 3.345-.164 1.228-.843 2.074-2.045 2.36-.883.212-1.805.33-2.714.355-1.961.053-3.925.019-5.887.019zm16.093 14.014C18.15 62 14.949 58.439 11.903 55.04c.87-.042 1.682-.012 2.47-.131 2.369-.356 4.228-1.503 5.306-3.707.673-1.373.801-2.847.644-4.356-.258-2.471-1.444-4.314-3.686-5.43-1.863-.928-3.871-1.164-5.916-1.172-3.423-.015-6.846-.012-10.269-.015-.136 0-.271-.004-.452 0v25.244h4.865c0-3.691.024-7.62.024-11.28l10.199 11.28h6.173zm43.04 9.686l.217-.264 37.259 26.147-.218.264z"/><path d="M101.777 75.159l-37.28 26.162-.197-.28 37.281-26.161z"/></g></symbol><symbol id="shape-marker" viewBox="0 0 10 12"><path d="M2.799 2.893a2.67 2.67 0 0 0-.031 3.779 4551.544 4551.544 0 0 0 1.874 1.906l.596-.587 1.309-1.288a2.673 2.673 0 1 0-3.748-3.81zM8.005 1.52a4.673 4.673 0 0 1-.054 6.608L6.64 9.417l-1.31 1.288-.712.7-.7-.712a5807.236 5807.236 0 0 1-2.576-2.619 4.67 4.67 0 0 1 .054-6.607 4.673 4.673 0 0 1 6.608.053z"/></symbol><symbol id="shape-mediacom" viewBox="0 0 167 24"><path d="M12.657 12.624h-.068L9.281.336H0v23.157h5.332V6.953H5.4l4.354 16.54h4.523l4.22-16.54h.067v16.54h6.615V.336H15.83zm14.34 10.869h17.382v-5.537h-10.43V14.21h8.439V9.045h-8.44V5.67h10.43V.337H26.998zM54.586.337h-8.54v23.157h9.013c3.206 0 6.075-.744 8.37-3.14 2.127-2.194 3.207-5.367 3.207-8.405 0-3.308-1.114-6.481-3.544-8.777C60.594.777 57.927.337 54.586.337m3.544 15.898a4.1 4.1 0 0 1-1.52 1.519c-.877.473-1.484.406-2.43.406h-1.013V5.603h.812c1.62 0 2.7-.068 3.814 1.317.979 1.282 1.417 3.307 1.417 4.86 0 1.553-.27 3.106-1.08 4.455m9.763 7.258h7.156V.336h-7.156zM83.42.337l-7.188 23.157h5.77l1.418-4.557h6.18l1.314 4.557h7.258L90.915.337H83.42zm1.183 13.535l1.889-6.716 1.89 6.716h-3.78zm32.29-4.59C116.419 3.51 113.044 0 107.14 0c-7.293 0-10.499 5.535-10.499 12.219 0 6.581 3.647 11.611 10.598 11.611 5.334 0 9.216-3.443 9.655-8.776l-6.481-.406c-.101 1.926-.945 3.848-3.139 3.848-3.206 0-3.342-3.948-3.342-6.277 0-2.194.136-7.021 3.274-7.021 2.397 0 3.139 2.463 3.074 4.421l6.614-.337zm11.925 9.248c-3.241 0-3.477-4.287-3.477-6.514 0-2.26.337-6.784 3.477-6.784 3.139 0 3.477 4.523 3.477 6.784 0 2.227-.237 6.514-3.477 6.514m0-18.53c-7.054 0-11.071 5.063-11.071 11.982 0 6.582 4.05 11.85 11.071 11.85s11.07-5.268 11.07-11.85c0-6.919-4.015-11.982-11.07-11.982m28.005.337l-3.172 12.288h-.067L150.276.337h-9.284v23.157h5.334V6.953h.067l4.358 16.54h4.52l4.221-16.54h.066v16.54h6.617V.338z" fill="#FFF" fill-rule="evenodd"/></symbol><symbol id="shape-power-logo" viewBox="0 0 386 87"><g fill="none" fill-rule="evenodd"><path fill="#FFF" d="M0 1.611h20.15v6.841h-6.642v29.619H6.47V8.452H0zM24.19.694h6.718V13.83c1.322-1.14 2.652-1.995 3.99-2.565 1.339-.57 2.694-.855 4.065-.855 2.677 0 4.932.925 6.767 2.776 1.57 1.603 2.354 3.958 2.354 7.064v17.82h-6.667V26.249c0-3.123-.149-5.238-.446-6.345-.298-1.107-.806-1.933-1.524-2.479-.72-.545-1.607-.818-2.665-.818-1.371 0-2.549.455-3.532 1.364-.983.908-1.665 2.148-2.045 3.717-.198.81-.297 2.66-.297 5.552v10.832H24.19V.694zm56.454 25.852H58.907c.314 1.916 1.153 3.44 2.516 4.573 1.363 1.131 3.102 1.697 5.217 1.697 2.528 0 4.701-.884 6.519-2.652l5.7 2.677c-1.42 2.016-3.122 3.507-5.105 4.474-1.983.967-4.338 1.45-7.064 1.45-4.23 0-7.676-1.334-10.336-4.003s-3.99-6.01-3.99-10.026c0-4.114 1.326-7.53 3.978-10.249 2.652-2.718 5.977-4.077 9.976-4.077 4.247 0 7.7 1.36 10.36 4.077 2.66 2.719 3.991 6.308 3.991 10.77l-.025 1.289zm-6.791-5.33c-.446-1.503-1.326-2.726-2.64-3.668-1.313-.941-2.838-1.412-4.573-1.412-1.883 0-3.536.528-4.957 1.586-.892.66-1.718 1.826-2.478 3.495h14.648zm24.14-19.605h7.361c3.983 0 6.854.368 8.613 1.103 1.76.735 3.148 1.925 4.164 3.57 1.017 1.643 1.525 3.614 1.525 5.91 0 2.545-.665 4.66-1.996 6.346-1.33 1.685-3.135 2.858-5.415 3.52-1.339.38-3.776.57-7.312.57v15.44h-6.94V1.612zm6.94 14.252h2.206c1.735 0 2.941-.124 3.619-.372a3.216 3.216 0 0 0 1.598-1.227c.389-.57.583-1.26.583-2.07 0-1.404-.546-2.428-1.636-3.073-.793-.479-2.264-.719-4.412-.719h-1.958v7.46zm30.386-5.453c2.545 0 4.936.636 7.175 1.909 2.239 1.272 3.987 2.999 5.243 5.18a13.926 13.926 0 0 1 1.883 7.064c0 2.544-.632 4.924-1.896 7.138-1.264 2.214-2.987 3.945-5.168 5.193-2.181 1.247-4.585 1.87-7.212 1.87-3.867 0-7.168-1.375-9.902-4.126-2.735-2.751-4.102-6.093-4.102-10.026 0-4.213 1.545-7.725 4.635-10.534 2.71-2.445 5.824-3.668 9.344-3.668zm.099 6.37c-2.099 0-3.846.731-5.242 2.193-1.396 1.463-2.095 3.334-2.095 5.615 0 2.346.69 4.246 2.07 5.7 1.38 1.454 3.127 2.181 5.242 2.181s3.875-.735 5.28-2.206c1.404-1.47 2.106-3.362 2.106-5.675 0-2.314-.689-4.193-2.069-5.64-1.38-1.445-3.144-2.168-5.292-2.168zm15.73-5.676h6.618l5.428 15.342 5.85-15.342h4.04l5.725 15.169 5.428-15.169h6.668l-9.84 26.967h-4.288l-5.75-15.367-5.924 15.367h-4.239zm69.615 15.442h-21.737c.314 1.916 1.152 3.44 2.516 4.573 1.363 1.131 3.102 1.697 5.217 1.697 2.528 0 4.701-.884 6.519-2.652l5.7 2.677c-1.421 2.016-3.123 3.507-5.105 4.474-1.983.967-4.338 1.45-7.064 1.45-4.231 0-7.676-1.334-10.336-4.003s-3.991-6.01-3.991-10.026c0-4.114 1.326-7.53 3.979-10.249 2.652-2.718 5.977-4.077 9.976-4.077 4.246 0 7.7 1.36 10.36 4.077 2.661 2.719 3.991 6.308 3.991 10.77l-.025 1.289zm-6.791-5.33c-.446-1.503-1.326-2.726-2.64-3.668-1.314-.941-2.838-1.412-4.573-1.412-1.884 0-3.536.528-4.957 1.586-.892.66-1.719 1.826-2.479 3.495h14.649zm10.682-10.112h5.8V14.5c.628-1.339 1.463-2.355 2.504-3.049a6.039 6.039 0 0 1 3.42-1.041c.876 0 1.793.231 2.751.694l-2.107 5.825c-.793-.397-1.445-.595-1.958-.595-1.041 0-1.921.644-2.639 1.933-.719 1.289-1.079 3.817-1.079 7.584l.025 1.314v10.906h-6.717V11.104zm39.589-.694c2.545 0 4.937.636 7.175 1.909 2.239 1.272 3.987 2.999 5.243 5.18a13.926 13.926 0 0 1 1.883 7.064c0 2.544-.632 4.924-1.896 7.138-1.264 2.214-2.986 3.945-5.168 5.193-2.181 1.247-4.585 1.87-7.212 1.87-3.867 0-7.167-1.375-9.902-4.126-2.735-2.751-4.102-6.093-4.102-10.026 0-4.213 1.545-7.725 4.635-10.534 2.71-2.445 5.824-3.668 9.344-3.668zm.099 6.37c-2.098 0-3.846.731-5.242 2.193-1.396 1.463-2.094 3.334-2.094 5.615 0 2.346.689 4.246 2.069 5.7 1.38 1.454 3.127 2.181 5.242 2.181s3.875-.735 5.28-2.206c1.404-1.47 2.107-3.362 2.107-5.675 0-2.314-.69-4.193-2.07-5.64-1.38-1.445-3.144-2.168-5.292-2.168zm16.507-5.676h2.405c.016-3.536.074-5.626.173-6.27.182-1.488.806-2.665 1.872-3.533C286.364.434 287.872 0 289.822 0c1.404 0 2.991.322 4.759.967v5.155c-.975-.28-1.777-.421-2.404-.421-.794 0-1.372.165-1.735.496-.265.247-.397.76-.397 1.536l-.025 3.371h4.288v5.75h-4.288v21.217h-6.766V16.854h-2.405v-5.75z"/><path d="M56.146 49.124h7.361c4.032 0 6.903.359 8.613 1.078 1.71.719 3.086 1.912 4.127 3.581 1.041 1.67 1.562 3.644 1.562 5.924 0 2.396-.575 4.4-1.723 6.01-1.148 1.612-2.88 2.83-5.193 3.657l8.626 16.21h-7.585L63.73 70.141h-.644v15.441h-6.94v-36.46zm6.94 14.251h2.181c2.214 0 3.739-.289 4.573-.867.834-.579 1.252-1.537 1.252-2.875 0-.793-.207-1.483-.62-2.07a3.434 3.434 0 0 0-1.66-1.264c-.695-.256-1.967-.384-3.818-.384h-1.908v7.46zm20.266-4.758h6.84v12.987c0 2.528.174 4.284.521 5.267.347.983.905 1.748 1.673 2.293.769.545 1.715.818 2.838.818 1.124 0 2.078-.269 2.863-.806.785-.537 1.368-1.326 1.748-2.367.28-.776.421-2.437.421-4.982v-13.21h6.791v11.426c0 4.709-.372 7.931-1.115 9.666-.909 2.115-2.247 3.739-4.015 4.87-1.769 1.133-4.016 1.698-6.742 1.698-2.958 0-5.35-.66-7.176-1.983-1.825-1.321-3.11-3.164-3.854-5.527-.529-1.635-.793-4.61-.793-8.922V58.617zm31.304-9.94h6.742v9.94h4.015v5.824h-4.015v21.142h-6.742V64.441h-3.47v-5.825h3.47zm14.426-.47h6.717v13.136c1.322-1.14 2.652-1.995 3.99-2.565 1.339-.57 2.694-.855 4.065-.855 2.677 0 4.932.925 6.767 2.775 1.569 1.603 2.354 3.958 2.354 7.064v17.821h-6.667V73.761c0-3.123-.149-5.238-.446-6.345-.298-1.108-.806-1.934-1.525-2.48-.718-.544-1.607-.817-2.664-.817-1.372 0-2.549.454-3.532 1.363-.983.909-1.665 2.148-2.045 3.718-.198.81-.297 2.66-.297 5.552v10.831h-6.717V48.206zM158.8 85.582h6.766V48.206H158.8zm39.905-11.525h-21.737c.314 1.917 1.152 3.441 2.516 4.573 1.363 1.132 3.102 1.698 5.217 1.698 2.528 0 4.701-.884 6.519-2.652l5.7 2.677c-1.421 2.016-3.123 3.507-5.106 4.473-1.982.967-4.337 1.45-7.064 1.45-4.23 0-7.675-1.334-10.335-4.003-2.66-2.668-3.991-6.01-3.991-10.025 0-4.115 1.326-7.531 3.978-10.25 2.653-2.717 5.978-4.077 9.977-4.077 4.246 0 7.7 1.36 10.36 4.078 2.66 2.718 3.991 6.308 3.991 10.77l-.025 1.288zm-6.791-5.329c-.447-1.504-1.326-2.726-2.64-3.668s-2.838-1.413-4.573-1.413c-1.884 0-3.536.529-4.957 1.586-.893.661-1.719 1.826-2.479 3.495h14.649zm27.776-6.345l-4.189 4.189c-1.702-1.686-3.247-2.528-4.635-2.528-.76 0-1.355.16-1.784.483-.43.322-.645.723-.645 1.202 0 .363.136.698.409 1.004.273.306.946.723 2.02 1.252l2.479 1.239c2.61 1.289 4.403 2.602 5.378 3.94.975 1.34 1.463 2.909 1.463 4.71 0 2.396-.88 4.395-2.64 5.998-1.76 1.603-4.119 2.404-7.076 2.404-3.933 0-7.073-1.536-9.419-4.61l4.164-4.536a9.627 9.627 0 0 0 2.788 2.244c1.066.57 2.012.855 2.838.855.893 0 1.611-.215 2.157-.645.545-.43.818-.925.818-1.487 0-1.04-.984-2.057-2.95-3.048l-2.28-1.14c-4.362-2.198-6.544-4.95-6.544-8.254 0-2.132.822-3.954 2.467-5.466 1.644-1.512 3.746-2.268 6.308-2.268 1.751 0 3.399.385 4.944 1.153s2.855 1.871 3.929 3.309zm21.332 0l-4.189 4.189c-1.702-1.686-3.247-2.528-4.635-2.528-.76 0-1.355.16-1.785.483-.429.322-.644.723-.644 1.202 0 .363.136.698.409 1.004.273.306.946.723 2.02 1.252l2.479 1.239c2.61 1.289 4.403 2.602 5.378 3.94.975 1.34 1.462 2.909 1.462 4.71 0 2.396-.879 4.395-2.639 5.998-1.76 1.603-4.119 2.404-7.077 2.404-3.932 0-7.072-1.536-9.418-4.61l4.164-4.536a9.627 9.627 0 0 0 2.788 2.244c1.066.57 2.012.855 2.838.855.893 0 1.611-.215 2.157-.645.545-.43.818-.925.818-1.487 0-1.04-.984-2.057-2.95-3.048l-2.28-1.14c-4.363-2.198-6.544-4.95-6.544-8.254 0-2.132.822-3.954 2.467-5.466 1.644-1.512 3.746-2.268 6.307-2.268 1.752 0 3.4.385 4.945 1.153 1.545.768 2.855 1.871 3.929 3.309zm13.719-13.26h18.094v6.766h-11.228v6.618h11.228v6.667h-11.228v16.408h-6.866zm35.188 8.798c2.544 0 4.936.637 7.175 1.909s3.986 3 5.242 5.18a13.918 13.918 0 0 1 1.884 7.064c0 2.545-.632 4.924-1.896 7.138-1.264 2.215-2.987 3.946-5.168 5.193-2.181 1.248-4.585 1.871-7.213 1.871-3.866 0-7.167-1.375-9.902-4.126-2.734-2.752-4.102-6.094-4.102-10.026 0-4.214 1.545-7.725 4.635-10.534 2.71-2.446 5.825-3.669 9.345-3.669zm.099 6.37c-2.099 0-3.846.732-5.242 2.194-1.397 1.462-2.095 3.334-2.095 5.614 0 2.346.69 4.247 2.07 5.7 1.379 1.455 3.127 2.182 5.242 2.182s3.875-.735 5.279-2.206c1.405-1.47 2.107-3.363 2.107-5.676s-.69-4.193-2.07-5.639c-1.379-1.446-3.143-2.169-5.291-2.169zm45.126-.223l-5.626 3.099c-1.058-1.107-2.103-1.876-3.136-2.305s-2.243-.645-3.631-.645c-2.528 0-4.573.756-6.134 2.268-1.562 1.512-2.343 3.45-2.343 5.812 0 2.297.752 4.173 2.256 5.627 1.504 1.454 3.478 2.18 5.924 2.18 3.024 0 5.378-1.032 7.064-3.097l5.329 3.643c-2.892 3.75-6.974 5.626-12.245 5.626-4.742 0-8.456-1.404-11.141-4.213-2.685-2.81-4.028-6.097-4.028-9.865 0-2.61.653-5.015 1.959-7.213 1.305-2.197 3.127-3.924 5.465-5.18 2.338-1.256 4.953-1.883 7.845-1.883 2.676 0 5.081.532 7.212 1.598a13.686 13.686 0 0 1 5.23 4.548zm4.022-5.453h6.841v12.988c0 2.528.174 4.284.521 5.267.347.983.905 1.748 1.673 2.293.768.545 1.714.818 2.838.818 1.123 0 2.078-.269 2.863-.806.784-.537 1.367-1.326 1.747-2.367.281-.776.421-2.437.421-4.982v-13.21h6.792v11.426c0 4.709-.372 7.931-1.116 9.666-.909 2.115-2.247 3.739-4.015 4.87-1.768 1.133-4.015 1.698-6.742 1.698-2.958 0-5.349-.66-7.175-1.983-1.826-1.321-3.111-3.164-3.854-5.527-.529-1.635-.794-4.61-.794-8.922V58.617zm45.994 3.768l-4.189 4.189c-1.702-1.686-3.246-2.528-4.634-2.528-.761 0-1.355.16-1.785.483-.43.322-.644.723-.644 1.202 0 .363.136.698.408 1.004.273.306.946.723 2.021 1.252l2.478 1.239c2.611 1.289 4.404 2.602 5.379 3.94.974 1.34 1.462 2.909 1.462 4.71 0 2.396-.88 4.395-2.64 5.998-1.76 1.603-4.118 2.404-7.076 2.404-3.933 0-7.072-1.536-9.419-4.61l4.164-4.536a9.63 9.63 0 0 0 2.789 2.244c1.066.57 2.012.855 2.838.855.892 0 1.611-.215 2.156-.645.545-.43.818-.925.818-1.487 0-1.04-.983-2.057-2.949-3.048l-2.281-1.14c-4.362-2.198-6.543-4.95-6.543-8.254 0-2.132.822-3.954 2.466-5.466 1.644-1.512 3.747-2.268 6.308-2.268 1.751 0 3.4.385 4.945 1.153 1.545.768 2.854 1.871 3.928 3.309z" fill="#ED135C"/></g></symbol><symbol id="shape-submit-arrow" viewBox="0 0 22 19"><path d="M22 9.5c0-.23-.162-.539-.326-.688L12.41.312a1.292 1.292 0 0 0-1.637-.039c-.451.35-.461 1.034-.044 1.414L18.164 8.5H1.158C.519 8.5 0 8.947 0 9.5c0 .552.519 1 1.158 1h17.006l-7.435 6.812c-.417.381-.388 1.047.044 1.415.456.387 1.211.353 1.637-.039l9.264-8.5A.832.832 0 0 0 22 9.5" fill="#FFF" fill-rule="evenodd"/></symbol></svg>