<svg width="167" height="137" viewBox="0 0 167 137" xmlns="http://www.w3.org/2000/svg">
  <g fill="#FFF" fill-rule="evenodd">
    <path d="M57.6764 11.309c-3.135.012-5.793 2.674-5.804 5.811-.01 3.112 2.68 5.774 5.835 5.776 3.14.001 5.824-2.688 5.795-5.807-.029-3.148-2.694-5.792-5.826-5.78m5.799-2.923V.017h4.963v27.128h-4.828c-.056-.342-.115-.696-.194-1.18-2.906 1.71-5.933 2.224-9.129 1.16-2.196-.73-3.952-2.07-5.284-3.957-2.644-3.744-2.576-8.687.191-12.351 1.672-2.214 3.906-3.563 6.638-4.023 2.67-.448 5.185.069 7.643 1.592M82.7784 17.064c-.03 3.137 2.548 5.806 5.634 5.831 3.166.025 5.826-2.596 5.835-5.75.009-3.171-2.604-5.821-5.755-5.837-3.08-.015-5.684 2.608-5.714 5.756zm16.328 10.085h-4.782c-.049-.391-.091-.724-.148-1.167-2.845 1.683-5.819 2.18-8.951 1.207-2.208-.687-3.98-2.017-5.334-3.892-2.751-3.811-2.668-8.927.195-12.616 3.248-4.185 7.747-4.977 14.143-2.432V.024h4.877v27.125zM111.515 11.308c-3.14-.014-5.762 2.613-5.781 5.79-.018 3.153 2.625 5.809 5.768 5.797 3.055-.012 5.632-2.596 5.666-5.681.034-3.207-2.536-5.892-5.653-5.906m5.608-3.054c.031-.45.062-.882.096-1.376h4.881v20.261h-4.865c-.038-.36-.074-.695-.126-1.186-2.506 1.544-5.174 2.105-8.008 1.48-2.825-.623-5.021-2.212-6.588-4.635-2.5-3.867-2.165-8.928.787-12.422 3.341-3.956 7.768-4.646 13.823-2.122M40.4379 17.177c.016-3.172-2.579-5.837-5.716-5.869-3.183-.032-5.879 2.64-5.878 5.827.001 3.082 2.637 5.73 5.733 5.761 3.169.03 5.846-2.582 5.861-5.719m-.054-8.831c.044-.551.078-.986.117-1.474h4.815v20.255h-4.81c-.039-.362-.076-.697-.125-1.148-2.908 1.695-5.937 2.208-9.133 1.154-2.2-.725-3.954-2.074-5.277-3.965-2.637-3.769-2.527-8.879.264-12.448 1.683-2.153 3.875-3.498 6.578-3.934 2.679-.433 5.192.111 7.571 1.56M136.465 13.236c-.775-2.52-3.686-3.571-5.949-2.196-1.145.696-1.164 2.074.085 2.588 1.191.491 2.508.675 3.769.998 1.461.374 2.977.611 4.368 1.162 1.94.769 3.259 2.22 3.428 4.402.187 2.423-.544 4.52-2.665 5.899-2.468 1.604-5.244 1.752-8.066 1.471-1.847-.183-3.566-.767-5.004-1.997-1.457-1.247-2.234-2.832-2.325-4.835h5.074c1.019 2.627 2.904 3.683 5.488 3.007.483-.126.982-.364 1.364-.682 1.227-1.026 1.011-2.491-.512-2.944-1.475-.44-3.031-.602-4.543-.923-.873-.185-1.753-.381-2.592-.678-4.164-1.474-5.254-6.788-1.881-9.671 1.074-.919 2.533-1.556 3.921-1.902 2.564-.639 5.146-.395 7.513.916 2.067 1.144 3.184 2.943 3.471 5.385h-4.944zM70.9927 27.159h4.879V6.888h-4.879zM70.9627 4.906h4.921V0h-4.921zM12.6799 125.0231h-.068l-3.304-12.275H.0349v23.132h5.327v-16.523h.068l4.35 16.523h4.519l4.214-16.523h.068v16.523h6.609v-23.132h-9.34zM27.0049 135.8805h17.365v-5.531h-10.419v-3.742h8.43v-5.16h-8.43v-3.371h10.419v-5.329h-17.365zM54.5659 112.7479h-8.531v23.133h9.003c3.203 0 6.069-.742 8.362-3.137 2.125-2.191 3.204-5.361 3.204-8.396 0-3.304-1.113-6.474-3.541-8.767-2.495-2.394-5.159-2.833-8.497-2.833m3.54 15.882c-.371.641-.876 1.147-1.517 1.518-.877.472-1.483.405-2.429.405h-1.011v-12.545h.81c1.619 0 2.697-.067 3.811 1.316.977 1.281 1.416 3.304 1.416 4.856 0 1.551-.271 3.102-1.08 4.45M67.8587 135.8811h7.149v-23.133h-7.149zM83.3715 112.7479l-7.181 23.133h5.766l1.415-4.552h6.173l1.314 4.552h7.25l-7.25-23.133h-7.487zm1.182 13.522l1.888-6.71 1.888 6.71h-3.776zM116.811 121.6844c-.474-5.766-3.846-9.273-9.744-9.273-7.285 0-10.488 5.53-10.488 12.206 0 6.575 3.643 11.6 10.587 11.6 5.329 0 9.207-3.439 9.645-8.767l-6.474-.405c-.101 1.923-.944 3.844-3.136 3.844-3.202 0-3.338-3.945-3.338-6.272 0-2.192.136-7.013 3.271-7.013 2.393 0 3.136 2.461 3.07 4.417l6.607-.337zM128.724 130.923c-3.238 0-3.473-4.283-3.473-6.508 0-2.259.336-6.777 3.473-6.777 3.136 0 3.473 4.518 3.473 6.777 0 2.225-.237 6.508-3.473 6.508m0-18.512c-7.047 0-11.06 5.059-11.06 11.97 0 6.575 4.045 11.837 11.06 11.837 7.014 0 11.059-5.262 11.059-11.837 0-6.911-4.012-11.97-11.059-11.97M156.701 112.7479l-3.169 12.275h-.067l-3.305-12.275h-9.276v23.133h5.329v-16.523h.067l4.353 16.523h4.516l4.217-16.523h.066v16.523h6.61v-23.133zM128.051 62.2048l.785 1.417 10.719-7.305 6.13-10.608c.272-4.107.567-8.8.832-12.9078l-1.402-.002-17.064 29.4058zM166.26 62.2048l-.784 1.417-10.719-7.305-6.131-10.608c-.272-4.107-.567-8.8-.832-12.9078l1.402-.002 17.064 29.4058zM153.289 58.9426l-6.188-.011h-.145l-5.934.011c-3.689 1.826-7.896 3.926-11.582 5.758l.663 1.214h34.105l.663-1.214c-3.686-1.832-7.893-3.932-11.582-5.758M67.4509 55.6492c0 .71-.002 1.42 0 2.129.006 1.471.442 2.742 1.829 3.452 1.516.775 3.084.787 4.614.026 1.093-.543 1.735-1.492 1.784-2.69.077-1.93.086-3.868-.001-5.797-.058-1.302-.795-2.254-2.008-2.798-.848-.381-1.74-.462-2.653-.392-2.136.163-3.454 1.518-3.527 3.648l-.038 2.422zm-3.91 9.823s-.613.014-.89 0v-25.245h4.841c0 2.081-.003 4.248-.003 6.37.862-.633 1.772-.987 2.753-1.137 2.607-.399 5.088-.103 7.263 1.518 2.064 1.538 2.994 3.684 3.06 6.206.046 1.779.059 3.565-.038 5.341-.2 3.683-2.398 6.328-5.991 7.18-2.488.59-4.969.554-7.329-.606-.422-.236-.882-.503-1.308-.751-.035-.02-.208-.133-.208-.133l-2.15 1.257zM116.397 65.4723c-2.366-2.644-4.999-5.567-7.372-8.205-.175-.195-.353-.387-.613-.671 0 3 .006 5.945.006 8.876h-4.858v-25.245h4.867c0 4.48-.02 9.163-.02 13.77.57-.647 1.053-1.196 1.536-1.744 1.942-2.201 3.887-4.4 5.821-6.609.203-.231.406-.321.713-.318 1.711.017 3.423.012 5.134.013.123.001.245 0 .489 0l-8.784 9.928c3.051 3.384 6.092 6.758 9.199 10.205h-6.118zM55.2272 53.4073c.133-1.984-.756-3.362-2.503-3.875-1.105-.324-2.228-.323-3.336-.018-1.644.452-2.664 1.842-2.468 3.893h8.307zm4.762 3.56h-13.092c-.001 1.246.032 2.281.675 3.27.368.565.889.958 1.523 1.18 1.372.48 2.774.563 4.19.247 1.14-.255 2.007-.824 2.211-2.1h4.415c-.114 1.56-.601 2.932-1.651 4.07-1.09 1.182-2.482 1.815-4.04 2.08-2.228.377-4.455.447-6.638-.278-3.327-1.105-5.382-3.78-5.505-7.282-.064-1.847-.07-3.705.051-5.548.234-3.587 2.268-6.063 5.738-6.971 2.813-.737 5.609-.631 8.231.762 2.45 1.302 3.698 3.437 3.875 6.167.093 1.439.017 2.888.017 4.403zM26.5461 53.3609h8.296c.053-1.541-.558-3.078-1.99-3.69-.943-.403-1.931-.462-2.944-.36-2.241.226-3.377 1.747-3.362 4.05m13.066 3.566h-13.025c-.056 1.408.211 3.956 2.393 4.547 1.235.333 2.466.434 3.713.205 1.222-.223 2.222-.75 2.432-2.133h4.438c-.227 2.505-1.342 4.378-3.622 5.474-1.182.568-2.451.794-3.751.881-2.094.139-4.148.007-6.061-.959-2.742-1.385-4.248-3.622-4.375-6.693-.079-1.903-.058-3.814.013-5.718.119-3.138 2.075-5.731 5.071-6.727 2.879-.956 5.763-.916 8.535.375 2.603 1.213 3.999 3.358 4.218 6.197.115 1.491.021 2.998.021 4.551M96.0406 58.2492c-.028 1.537-.937 2.746-2.384 3.244-.558.192-1.124.288-1.694.293-.57-.005-1.136-.101-1.694-.293-1.447-.498-2.356-1.707-2.384-3.244-.032-1.711-.035-3.424 0-5.135.04-1.998 1.477-3.401 3.557-3.535.174-.012.348-.017.521-.018.173.001.347.006.521.018 2.08.134 3.517 1.537 3.557 3.535.035 1.711.032 3.424 0 5.135m4.7154-6.094c-.208-2.661-1.5934-4.736-4.0594-5.845-1.569-.706-3.154-1.071-4.734-1.084-1.58.013-3.165.378-4.734 1.084-2.466 1.109-3.851 3.184-4.059 5.845-.18 2.293-.166 4.62-.011 6.916.18 2.651 1.554 4.662 3.95 5.881 1.568.798 3.198 1.141 4.854 1.128 1.656.013 3.286-.33 4.854-1.128 2.396-1.219 3.7704-3.23 3.9504-5.881.155-2.296.168-4.623-.011-6.916M5.168 51.4587l-.279-.004v-6.94c.118-.001.211-.001.305 0 2.143.015 4.286.008 6.429.06 1.006.024 1.982.253 2.856.805 1.257.793 1.515 1.987 1.335 3.345-.164 1.228-.843 2.074-2.045 2.361-.883.211-1.805.33-2.714.354-1.961.053-3.925.019-5.887.019zm16.093 14.014c-3.111-3.472-6.312-7.034-9.358-10.433.87-.042 1.682-.012 2.47-.131 2.369-.356 4.228-1.503 5.306-3.707.673-1.373.801-2.847.644-4.356-.258-2.471-1.444-4.314-3.686-5.43-1.863-.928-3.871-1.164-5.916-1.172-3.423-.015-6.846-.012-10.269-.015-.136 0-.271-.004-.452 0v25.244h4.865c0-3.691.024-7.62.024-11.28l10.199 11.28h6.173zM64.3001 75.1589l.218-.264 37.2589 26.147-.218.264z"/>
    <path d="M101.777 75.1589l-37.2808 26.1624-.1961-.2794 37.2809-26.1624z"/>
  </g>
</svg>
