<svg width="10" height="12" viewBox="0 0 10 12" xmlns="http://www.w3.org/2000/svg">
  <path d="M2.7988 2.8927C1.746 3.9273 1.732 5.6196 2.768 6.6715a4551.544 4551.544 0 0 0 1.8744 1.906l.596-.5863C5.8926 7.347 6.243 7.0023 6.547 6.703c1.0527-1.036 1.0667-2.728.0319-3.7803-1.0357-1.0523-2.7275-1.066-3.7802-.03zm5.2058-1.3726c1.8095 1.84 1.7851 4.798-.054 6.6078L6.6414 9.4166c-.5293.521-.923.9082-1.3095 1.2881l-.7128.7006-.701-.7124a5807.2365 5807.2365 0 0 1-2.5756-2.6187c-1.811-1.839-1.7865-4.7987.054-6.6075 1.8397-1.8103 4.7978-1.7863 6.6082.0534z" fill-rule="nonzero"/>
</svg>
