<svg width="167" height="24" viewBox="0 0 167 24" xmlns="http://www.w3.org/2000/svg">
  <g fill="#FFF" fill-rule="evenodd">
    <path d="M12.657 12.6243h-.068L9.281.3363H0v23.157h5.332v-16.54H5.4l4.354 16.54h4.523l4.22-16.54h.067v16.54h6.615V.3363H15.83zM26.9968 23.493h17.382v-5.537h-10.43V14.21h8.439V9.045h-8.439V5.67h10.43V.337h-17.382zM54.5857.3367h-8.54v23.157h9.013c3.206 0 6.075-.744 8.37-3.14 2.127-2.194 3.207-5.367 3.207-8.405 0-3.308-1.114-6.481-3.544-8.777-2.498-2.395-5.165-2.835-8.506-2.835m3.544 15.898c-.372.642-.878 1.148-1.519 1.519-.878.473-1.485.406-2.431.406h-1.013V5.6027h.812c1.62 0 2.7-.068 3.814 1.317.979 1.282 1.417 3.307 1.417 4.861 0 1.552-.27 3.105-1.08 4.454M67.8928 23.493h7.156V.336h-7.156zM83.4206.3367l-7.188 23.157h5.771l1.417-4.557h6.18l1.314 4.557h7.258L90.9146.3367h-7.494zm1.183 13.535l1.889-6.716 1.89 6.716h-3.779zM116.894 9.282C116.419 3.51 113.044 0 107.14 0c-7.2927 0-10.4987 5.535-10.4987 12.219 0 6.581 3.6467 11.611 10.5977 11.611 5.334 0 9.216-3.443 9.655-8.776l-6.481-.406c-.101 1.926-.945 3.848-3.139 3.848-3.206 0-3.342-3.948-3.342-6.277 0-2.194.136-7.021 3.274-7.021 2.397 0 3.139 2.463 3.074 4.421l6.614-.337zM128.819 18.5301c-3.241 0-3.477-4.287-3.477-6.514 0-2.261.337-6.784 3.477-6.784 3.139 0 3.477 4.523 3.477 6.784 0 2.227-.237 6.514-3.477 6.514m0-18.53c-7.054 0-11.071 5.063-11.071 11.982 0 6.582 4.05 11.849 11.071 11.849s11.07-5.267 11.07-11.849c0-6.919-4.015-11.982-11.07-11.982M156.824.3367l-3.172 12.288h-.067L150.276.3367h-9.284v23.157h5.334V6.9527h.067l4.358 16.541h4.52l4.221-16.541h.066v16.541h6.617V.3367z"/>
  </g>
</svg>
