<svg width="386" height="87" viewBox="0 0 386 87" xmlns="http://www.w3.org/2000/svg">
  <g fill="none" fill-rule="evenodd">
    <path fill="#FFF" d="M0 1.6111h20.1508V8.452h-6.6426v29.6189H6.4691V8.452H0zM24.1909.694h6.7169v13.1365c1.3219-1.1402 2.6521-1.9953 3.9905-2.5654 1.3385-.57 2.6934-.8551 4.0649-.8551 2.6768 0 4.9323.9254 6.7665 2.776 1.5698 1.6028 2.3546 3.9575 2.3546 7.064v17.8209H41.417V26.2481c0-3.123-.1487-5.238-.4462-6.3451-.2974-1.1071-.8055-1.9333-1.5243-2.4786-.7188-.5453-1.6069-.8179-2.6645-.8179-1.3714 0-2.5488.4544-3.5319 1.3632-.9832.9088-1.6648 2.1481-2.0449 3.7178-.1982.8097-.2974 2.6604-.2974 5.552v10.8314h-6.7169V.694zM80.6442 26.5455H58.9071c.314 1.9168 1.1526 3.4411 2.5158 4.573 1.3632 1.1319 3.1023 1.6978 5.2174 1.6978 2.5281 0 4.701-.884 6.5186-2.652l5.7008 2.6768c-1.4211 2.0159-3.123 3.5072-5.1059 4.4739-1.9829.9666-4.3375 1.4499-7.0639 1.4499-4.2301 0-7.6754-1.3343-10.3357-4.0029-2.6603-2.6686-3.9905-6.0105-3.9905-10.0258 0-4.1144 1.326-7.5307 3.9781-10.2489 2.6521-2.7182 5.9775-4.0773 9.9763-4.0773 4.2466 0 7.7001 1.3591 10.3604 4.0773 2.6604 2.7182 3.9905 6.308 3.9905 10.7694l-.0248 1.2888zm-6.7913-5.3289c-.4461-1.5037-1.326-2.7264-2.6396-3.6683-1.3137-.9418-2.838-1.4128-4.573-1.4128-1.8837 0-3.5361.5288-4.9572 1.5863-.8922.661-1.7184 1.8259-2.4785 3.4948h14.6483zM97.9929 1.6111h7.3611c3.983 0 6.854.3676 8.613 1.103 1.76.7353 3.148 1.925 4.164 3.5691 1.017 1.6441 1.525 3.6146 1.525 5.9114 0 2.5447-.665 4.6597-1.996 6.3452-1.33 1.6854-3.135 2.8586-5.415 3.5195-1.339.3801-3.776.5701-7.312.5701v15.4415h-6.9401V1.6111zm6.9401 14.2518h2.206c1.735 0 2.941-.1239 3.619-.3718.677-.2479 1.21-.6568 1.598-1.2269.389-.5701.583-1.2599.583-2.0696 0-1.4045-.546-2.429-1.636-3.0734-.793-.4792-2.264-.7188-4.412-.7188h-1.958v7.4605zM135.319 10.41c2.545 0 4.936.6362 7.175 1.9085 2.239 1.2724 3.987 2.9991 5.243 5.1803 1.255 2.1811 1.883 4.5357 1.883 7.0639 0 2.5447-.632 4.9241-1.896 7.1383-1.264 2.2142-2.987 3.945-5.168 5.1926-2.181 1.2475-4.585 1.8713-7.212 1.8713-3.867 0-7.168-1.3756-9.902-4.1268-2.735-2.7512-4.102-6.0932-4.102-10.0258 0-4.2136 1.545-7.7249 4.635-10.534 2.71-2.4455 5.824-3.6683 9.344-3.6683zm.099 6.37c-2.099 0-3.846.7311-5.242 2.1935-1.396 1.4624-2.095 3.3337-2.095 5.614 0 2.3464.69 4.2466 2.07 5.7007 1.38 1.4541 3.127 2.1811 5.242 2.1811s3.875-.7353 5.28-2.2059c1.404-1.4706 2.106-3.3626 2.106-5.6759 0-2.3134-.689-4.1929-2.069-5.6388-1.38-1.4458-3.144-2.1687-5.292-2.1687zM151.148 11.104h6.618l5.428 15.3424 5.85-15.3424h4.04l5.725 15.1689 5.428-15.1689h6.668l-9.84 26.9669h-4.288l-5.75-15.3671-5.924 15.3671h-4.239zM220.763 26.5455h-21.737c.314 1.9168 1.152 3.4411 2.516 4.573 1.363 1.1319 3.102 1.6978 5.217 1.6978 2.528 0 4.701-.884 6.519-2.652l5.7 2.6768c-1.421 2.0159-3.123 3.5072-5.105 4.4739-1.983.9666-4.338 1.4499-7.064 1.4499-4.231 0-7.676-1.3343-10.336-4.0029-2.66-2.6686-3.991-6.0105-3.991-10.0258 0-4.1144 1.326-7.5307 3.979-10.2489 2.652-2.7182 5.977-4.0773 9.976-4.0773 4.246 0 7.7 1.3591 10.36 4.0773 2.661 2.7182 3.991 6.308 3.991 10.7694l-.025 1.2888zm-6.791-5.3289c-.446-1.5037-1.326-2.7264-2.64-3.6683-1.314-.9418-2.838-1.4128-4.573-1.4128-1.884 0-3.536.5288-4.957 1.5863-.892.661-1.719 1.8259-2.479 3.4948h14.649zM224.654 11.104h5.8v3.3957c.628-1.3385 1.463-2.3547 2.504-3.0487 1.041-.694 2.181-1.041 3.42-1.041.876 0 1.793.2314 2.751.694l-2.107 5.8247c-.793-.3966-1.445-.5949-1.958-.5949-1.041 0-1.921.6445-2.639 1.9333-.719 1.2889-1.079 3.817-1.079 7.5844l.025 1.3137v10.9057h-6.717V11.104zM264.243 10.41c2.545 0 4.937.6362 7.175 1.9085 2.239 1.2724 3.987 2.9991 5.243 5.1803 1.255 2.1811 1.883 4.5357 1.883 7.0639 0 2.5447-.632 4.9241-1.896 7.1383-1.264 2.2142-2.986 3.945-5.168 5.1926-2.181 1.2475-4.585 1.8713-7.212 1.8713-3.867 0-7.167-1.3756-9.902-4.1268-2.735-2.7512-4.102-6.0932-4.102-10.0258 0-4.2136 1.545-7.7249 4.635-10.534 2.71-2.4455 5.824-3.6683 9.344-3.6683zm.099 6.37c-2.098 0-3.846.7311-5.242 2.1935-1.396 1.4624-2.094 3.3337-2.094 5.614 0 2.3464.689 4.2466 2.069 5.7007 1.38 1.4541 3.127 2.1811 5.242 2.1811s3.875-.7353 5.28-2.2059c1.404-1.4706 2.107-3.3626 2.107-5.6759 0-2.3134-.69-4.1929-2.07-5.6388-1.38-1.4458-3.144-2.1687-5.292-2.1687zM280.849 11.104h2.405c.016-3.5361.074-5.6263.173-6.2708.182-1.4871.806-2.6644 1.872-3.5319C286.364.4338 287.872 0 289.822 0c1.404 0 2.991.3222 4.759.9667v5.1554c-.975-.2809-1.777-.4214-2.404-.4214-.794 0-1.372.1653-1.735.4958-.265.2478-.397.76-.397 1.5367l-.025 3.3708h4.288v5.7503h-4.288v21.2166h-6.766V16.8543h-2.405V11.104z"/>
    <path d="M56.1459 49.1236h7.3613c4.0318 0 6.9028.3594 8.6131 1.0782 1.7102.7187 3.0858 1.9126 4.1268 3.5815 1.041 1.6689 1.5615 3.6435 1.5615 5.9238 0 2.3959-.5742 4.3995-1.7226 6.0105-1.1484 1.6111-2.8793 2.8297-5.1926 3.6559l8.6254 16.2099h-7.5844l-8.2041-15.4415h-.6444v15.4415h-6.94V49.1236zm6.94 14.2518h2.1811c2.2142 0 3.7385-.2892 4.573-.8675.8344-.5784 1.2517-1.5367 1.2517-2.8752 0-.7931-.2066-1.483-.6197-2.0696-.4131-.5866-.9666-1.0079-1.6606-1.2641-.694-.2561-1.9664-.3841-3.817-.3841h-1.9085v7.4605zM83.352 58.6165h6.8409v12.9877c0 2.5282.1735 4.2838.5205 5.267.347.9832.9047 1.7474 1.673 2.2927.7684.5453 1.7144.8179 2.838.8179 1.1236 0 2.0779-.2685 2.8627-.8055.7849-.537 1.3674-1.3261 1.7474-2.3671.2805-.7766.4215-2.4372.4215-4.9819V58.6165h6.791v11.4262c0 4.7093-.372 7.9315-1.115 9.6665-.909 2.115-2.247 3.7385-4.015 4.8704-1.769 1.1319-4.0157 1.6978-6.7422 1.6978-2.9577 0-5.3496-.661-7.1754-1.9829-1.8259-1.3219-3.1107-3.1643-3.8542-5.5272-.5288-1.6358-.7932-4.6101-.7932-8.9228v-11.228zM114.656 48.6774h6.742v9.9391h4.015v5.8247h-4.015v21.1422h-6.742V64.4412h-3.47v-5.8247h3.47zM129.082 48.2065h6.717v13.1364c1.322-1.1401 2.652-1.9952 3.99-2.5653 1.339-.5701 2.694-.8551 4.065-.8551 2.677 0 4.932.9253 6.767 2.776 1.569 1.6028 2.354 3.9575 2.354 7.064v17.8209h-6.667V73.7606c0-3.123-.149-5.2381-.446-6.3451-.298-1.1071-.806-1.9333-1.525-2.4786-.718-.5453-1.607-.818-2.664-.818-1.372 0-2.549.4545-3.532 1.3633-.983.9088-1.665 2.1481-2.045 3.7178-.198.8097-.297 2.6604-.297 5.552v10.8314h-6.717V48.2065zM158.8 85.5834h6.7665V48.2065H158.8zM198.705 74.058h-21.737c.314 1.9168 1.152 3.4411 2.516 4.573 1.363 1.1319 3.102 1.6978 5.217 1.6978 2.528 0 4.701-.884 6.519-2.6521l5.7 2.6769c-1.421 2.0159-3.123 3.5072-5.106 4.4738-1.982.9667-4.337 1.45-7.064 1.45-4.23 0-7.675-1.3343-10.335-4.0029-2.66-2.6686-3.991-6.0105-3.991-10.0258 0-4.1145 1.326-7.5308 3.978-10.2489 2.653-2.7182 5.978-4.0773 9.977-4.0773 4.246 0 7.7 1.3591 10.36 4.0773 2.66 2.7181 3.991 6.3079 3.991 10.7694l-.025 1.2888zm-6.791-5.3289c-.447-1.5037-1.326-2.7264-2.64-3.6683s-2.838-1.4128-4.573-1.4128c-1.884 0-3.536.5288-4.957 1.5863-.893.661-1.719 1.8259-2.479 3.4948h14.649zM219.69 62.3839l-4.189 4.1888c-1.702-1.6854-3.247-2.5281-4.635-2.5281-.76 0-1.355.1611-1.784.4833-.43.3222-.645.7229-.645 1.2021 0 .3635.136.6982.409 1.0038.273.3057.946.723 2.02 1.2517l2.479 1.2393c2.61 1.2889 4.403 2.6025 5.378 3.9409.975 1.3385 1.463 2.9082 1.463 4.7093 0 2.396-.88 4.3954-2.64 5.9982-1.76 1.6028-4.119 2.4042-7.076 2.4042-3.933 0-7.073-1.5367-9.419-4.6101l4.164-4.5358c.793.9253 1.723 1.673 2.788 2.2431 1.066.57 2.012.8551 2.838.8551.893 0 1.611-.2148 2.157-.6445.545-.4296.818-.9253.818-1.4871 0-1.041-.984-2.0572-2.95-3.0486l-2.28-1.1402c-4.362-2.1977-6.544-4.9489-6.544-8.2536 0-2.1316.822-3.9534 2.467-5.4653 1.644-1.5119 3.746-2.2679 6.308-2.2679 1.751 0 3.399.3842 4.944 1.1525 1.545.7684 2.855 1.8714 3.929 3.3089zM241.022 62.3839l-4.189 4.1888c-1.702-1.6854-3.247-2.5281-4.635-2.5281-.76 0-1.355.1611-1.785.4833-.429.3222-.644.7229-.644 1.2021 0 .3635.136.6982.409 1.0038.273.3057.946.723 2.02 1.2517l2.479 1.2393c2.61 1.2889 4.403 2.6025 5.378 3.9409.975 1.3385 1.462 2.9082 1.462 4.7093 0 2.396-.879 4.3954-2.639 5.9982-1.76 1.6028-4.119 2.4042-7.077 2.4042-3.932 0-7.072-1.5367-9.418-4.6101l4.164-4.5358c.793.9253 1.723 1.673 2.788 2.2431 1.066.57 2.012.8551 2.838.8551.893 0 1.611-.2148 2.157-.6445.545-.4296.818-.9253.818-1.4871 0-1.041-.984-2.0572-2.95-3.0486l-2.28-1.1402c-4.363-2.1977-6.544-4.9489-6.544-8.2536 0-2.1316.822-3.9534 2.467-5.4653 1.644-1.5119 3.746-2.2679 6.307-2.2679 1.752 0 3.4.3842 4.945 1.1525 1.545.7684 2.855 1.8714 3.929 3.3089zM254.741 49.1236h18.094v6.7665h-11.228v6.6178h11.228v6.6673h-11.228v16.4082h-6.866zM289.929 57.9225c2.544 0 4.936.6362 7.175 1.9085s3.986 2.9991 5.242 5.1802c1.256 2.1812 1.884 4.5358 1.884 7.064 0 2.5446-.632 4.9241-1.896 7.1383-1.264 2.2142-2.987 3.945-5.168 5.1926-2.181 1.2475-4.585 1.8713-7.213 1.8713-3.866 0-7.167-1.3756-9.902-4.1268-2.734-2.7512-4.102-6.0932-4.102-10.0259 0-4.2135 1.545-7.7248 4.635-10.5339 2.71-2.4455 5.825-3.6683 9.345-3.6683zm.099 6.3699c-2.099 0-3.846.7312-5.242 2.1936-1.397 1.4623-2.095 3.3337-2.095 5.614 0 2.3463.69 4.2466 2.07 5.7007 1.379 1.4541 3.127 2.1811 5.242 2.1811s3.875-.7353 5.279-2.2059c1.405-1.4706 2.107-3.3626 2.107-5.6759 0-2.3134-.69-4.193-2.07-5.6388-1.379-1.4458-3.143-2.1688-5.291-2.1688zM335.154 64.0694l-5.626 3.0982c-1.058-1.1071-2.103-1.8755-3.136-2.3051s-2.243-.6444-3.631-.6444c-2.528 0-4.573.756-6.134 2.2679-1.562 1.5119-2.343 3.4493-2.343 5.8122 0 2.2969.752 4.1723 2.256 5.6264 1.504 1.4541 3.478 2.1812 5.924 2.1812 3.024 0 5.378-1.0328 7.064-3.0983l5.329 3.6435c-2.892 3.7509-6.974 5.6264-12.245 5.6264-4.742 0-8.456-1.4045-11.141-4.2136-2.685-2.809-4.028-6.0973-4.028-9.8647 0-2.6108.653-5.015 1.959-7.2127 1.305-2.1976 3.127-3.9244 5.465-5.1802 2.338-1.2558 4.953-1.8837 7.845-1.8837 2.676 0 5.081.5329 7.212 1.5987 2.132 1.0658 3.875 2.5818 5.23 4.5482zM339.176 58.6165h6.841v12.9877c0 2.5282.174 4.2838.521 5.267.347.9832.905 1.7474 1.673 2.2927.768.5453 1.714.8179 2.838.8179 1.123 0 2.078-.2685 2.863-.8055.784-.537 1.367-1.3261 1.747-2.3671.281-.7766.421-2.4372.421-4.9819V58.6165h6.792v11.4262c0 4.7093-.372 7.9315-1.116 9.6665-.909 2.115-2.247 3.7385-4.015 4.8704-1.768 1.1319-4.015 1.6978-6.742 1.6978-2.958 0-5.349-.661-7.175-1.9829-1.826-1.3219-3.111-3.1643-3.854-5.5272-.529-1.6358-.794-4.6101-.794-8.9228v-11.228zM385.17 62.3839l-4.189 4.1888c-1.702-1.6854-3.246-2.5281-4.634-2.5281-.761 0-1.355.1611-1.785.4833-.43.3222-.644.7229-.644 1.2021 0 .3635.136.6982.408 1.0038.273.3057.946.723 2.021 1.2517l2.478 1.2393c2.611 1.2889 4.404 2.6025 5.379 3.9409.974 1.3385 1.462 2.9082 1.462 4.7093 0 2.396-.88 4.3954-2.64 5.9982-1.76 1.6028-4.118 2.4042-7.076 2.4042-3.933 0-7.072-1.5367-9.419-4.6101l4.164-4.5358c.794.9253 1.723 1.673 2.789 2.2431 1.066.57 2.012.8551 2.838.8551.892 0 1.611-.2148 2.156-.6445.545-.4296.818-.9253.818-1.4871 0-1.041-.983-2.0572-2.949-3.0486l-2.281-1.1402c-4.362-2.1977-6.543-4.9489-6.543-8.2536 0-2.1316.822-3.9534 2.466-5.4653 1.644-1.5119 3.747-2.2679 6.308-2.2679 1.751 0 3.4.3842 4.945 1.1525 1.545.7684 2.854 1.8714 3.928 3.3089z" fill="#ED135C"/>
  </g>
</svg>
